<?xml version="1.0" encoding="utf-8"?>
<!-- Generator: Adobe Illustrator 17.1.0, SVG Export Plug-In . SVG Version: 6.00 Build 0)  -->
<!DOCTYPE svg PUBLIC "-//W3C//DTD SVG 1.1//EN" "http://www.w3.org/Graphics/SVG/1.1/DTD/svg11.dtd">
<svg version="1.1" id="Layer_1" xmlns="http://www.w3.org/2000/svg" xmlns:xlink="http://www.w3.org/1999/xlink" x="0px" y="0px"
	 viewBox="193.3 175.3 25.3 25.3" enable-background="new 193.3 175.3 25.3 25.3" xml:space="preserve">
<path fill="#FFFFFF" d="M215.5,175.3c-3.2,0-6.3,0-9.5,0c-3.1,0-6.3,0-9.4,0c-2,0-3.2,1.1-3.2,3.1c0,6.3,0,12.8,0,19.1
	c0,1.9,1.2,3.1,3.1,3.1c6.4,0,12.8,0,19.2,0c0.5,0,0.9-0.1,1.2-0.2c1-0.4,1.8-1.5,1.8-2.7v-19.6c0-0.6-0.2-1.1-0.5-1.7
	C217.6,175.7,216.7,175.3,215.5,175.3z M211.9,178.3c0.9,0,1.9,0,2.8,0c0.6,0,0.9,0.3,0.9,0.9c0,0.9,0,1.9,0,2.8c0,0.6-0.4,0.9-1,1
	c-0.4,0-0.9,0-1.5,0c-0.4,0-0.9,0-1.3,0c-0.6,0-0.9-0.3-1-0.9c0-0.9,0-2,0-2.9C211,178.6,211.3,178.3,211.9,178.3z M206,183.1
	c2.7,0,4.9,2.2,4.9,4.8c0,2.7-2.1,4.9-4.8,4.9c-2.7,0-4.8-2.2-4.8-4.9C201.2,185.3,203.4,183.2,206,183.1z M215.7,186.7
	c0,3.2,0,6.4,0,9.5c0,1-0.3,1.2-1.2,1.2c-5.6,0-11.3,0-16.9,0c-0.9,0-1.2-0.3-1.2-1.1c0-3.3,0-6.6,0-10.1c0-0.1,0-0.2,0-0.4
	c0.7,0,1.3,0,2.1,0c-0.5,3,0.2,5.6,2.4,7.7c1.7,1.5,3.6,2.2,5.8,2c4.1-0.3,8.1-4.1,7.1-9.6c0.7,0,1.3,0,2.1,0
	C215.7,186.3,215.7,186.5,215.7,186.7z"/>
</svg>
