<?xml version="1.0" encoding="utf-8"?>
<!-- Generator: Adobe Illustrator 17.1.0, SVG Export Plug-In . SVG Version: 6.00 Build 0)  -->
<!DOCTYPE svg PUBLIC "-//W3C//DTD SVG 1.1//EN" "http://www.w3.org/Graphics/SVG/1.1/DTD/svg11.dtd">
<svg version="1.1" id="Layer_1" xmlns="http://www.w3.org/2000/svg" xmlns:xlink="http://www.w3.org/1999/xlink" x="0px" y="0px"
	 viewBox="675.5 356.9 67 66.7" enable-background="new 675.5 356.9 67 66.7" xml:space="preserve">
<path fill="#FFFFFF" d="M717.2,393.5c-2,0-2.3,4.1-3.8,4.1s-5-1.9-7.4-4.2l-0.2-0.2c-2.5-2.3-4.2-5.8-4.2-7.2s4.2-1.7,4.2-3.8
	s-6-8.6-8.1-8.5c-2.2,0.2-5.8,4.2-5.3,7.7s4.7,9.7,10.2,15.2c5.5,5.3,11.9,9.6,15.5,10c3.6,0.5,7.7-3.1,7.8-5.2
	C726.1,399.3,719.2,393.5,717.2,393.5z"/>
<path fill="#FFFFFF" d="M709,356.9c-18.5,0-33.5,15-33.5,33.4c0,18.3,15,33.4,33.5,33.4c18.5,0,33.5-15,33.5-33.4
	C742.5,371.9,727.5,356.9,709,356.9z M709,417.5c-15,0-27.3-12.2-27.3-27.1c0-14.9,12.2-27.1,27.3-27.1c15,0,27.3,12.2,27.3,27.1
	C736.3,405.3,724,417.5,709,417.5z"/>
</svg>
