<?xml version="1.0" encoding="utf-8"?>
<!-- Generator: Adobe Illustrator 17.1.0, SVG Export Plug-In . SVG Version: 6.00 Build 0)  -->
<!DOCTYPE svg PUBLIC "-//W3C//DTD SVG 1.1//EN" "http://www.w3.org/Graphics/SVG/1.1/DTD/svg11.dtd">
<svg version="1.1" id="Layer_1" xmlns="http://www.w3.org/2000/svg" xmlns:xlink="http://www.w3.org/1999/xlink" x="0px" y="0px"
	 viewBox="-218.6 369.2 28.2 41.7" enable-background="new -218.6 369.2 28.2 41.7" xml:space="preserve">
<path fill="#FFFFFF" d="M-215,410.9c0-3.1,0-6.2,0-9.4c-1.2,0-2.4,0-3.6,0c0-1.4,0-2.7,0-4.1c1.2,0,2.3,0,3.5,0c0-0.9,0-1.7,0-2.6
	c-1.2,0-2.3,0-3.5,0c0-1.4,0-2.7,0-4.2c1.2,0,2.3,0,3.5,0c0-7.2,0-14.2,0-21.4c0.2,0,0.4,0,0.6,0c3.7,0,7.3,0,11,0
	c3.8,0.1,7.1,1.2,9.8,4c1.9,2.1,2.9,4.6,3.2,7.4c0.3,2.8-0.2,5.5-1.6,8c-1.9,3.3-4.9,5.1-8.5,5.8c-2.2,0.4-4.3,0.3-6.5,0.3
	c-0.7,0-1.4,0-2.1,0c0,0.9,0,1.7,0,2.6c5.2,0,10.3,0,15.5,0c0,1.4,0,2.7,0,4.1c-5.2,0-10.3,0-15.6,0c0,3.2,0,6.3,0,9.4
	C-211.2,410.9-213.1,410.9-215,410.9z M-209.2,374c0,5.5,0,11,0,16.6c1.7,0,3.4,0,5.1,0c1.6,0,3-0.4,4.3-1.4
	c2.8-2.1,3.9-4.9,3.5-8.3s-2.3-5.7-5.6-6.6C-204.2,373.5-206.7,373.9-209.2,374C-209.2,373.9-209.2,373.9-209.2,374z"/>
</svg>
