<?xml version="1.0" encoding="utf-8"?>
<!-- Generator: Adobe Illustrator 17.1.0, SVG Export Plug-In . SVG Version: 6.00 Build 0)  -->
<!DOCTYPE svg PUBLIC "-//W3C//DTD SVG 1.1//EN" "http://www.w3.org/Graphics/SVG/1.1/DTD/svg11.dtd">
<svg version="1.1" id="Layer_1" xmlns="http://www.w3.org/2000/svg" xmlns:xlink="http://www.w3.org/1999/xlink" x="0px" y="0px"
	 viewBox="162 110.4 87.2 82.7" enable-background="new 162 110.4 87.2 82.7" xml:space="preserve">
<g>
	<path fill="#FFFFFF" d="M249.2,144.3c0,3.1-2.3,5.4-5.4,5.4h-76.3c-3.1,0-5.4-2.3-5.4-5.4l0,0c0-3.1,2.3-5.4,5.4-5.4h76.3
		C246.9,138.9,249.2,141.2,249.2,144.3L249.2,144.3z"/>
	<path fill="#FFFFFF" d="M169,152.9c0,0,0.8,35.8,7.8,38.1c7,2.3,56,3.1,59.9,0c3.9-3.1,6.2-38.1,6.2-38.1H169z M179.9,186.4
		l-2.3-27.2h3.9l2.3,27.2H179.9z M190.8,186.4l-2.3-27.2h3.9l2.3,27.2H190.8z M210.3,186.4h-8.6v-27.2h8.6V186.4z M221.2,186.4h-3.9
		l2.3-27.2h3.9L221.2,186.4z M231.3,186.4h-3.9l2.3-27.2h3.9L231.3,186.4z"/>
	<path fill="#FFFFFF" d="M184.6,143.6c-0.8,0.8-2.3,0.8-3.9-0.8l0,0c-1.6-1.6-1.6-3.1-1.6-3.9l23.3-28c0.8-0.8,2.3-0.8,3.9,0.8l0,0
		c1.6,1.6,1.6,3.1,1.6,3.9L184.6,143.6z"/>
	<path fill="#FFFFFF" d="M232.8,139.7c0.8,0.8,0.8,2.3-0.8,3.9l0,0c-1.6,1.6-3.1,1.6-3.9,0.8l-24.9-26.5c-0.8-0.8-0.8-2.3,0.8-3.9
		l0,0c1.6-1.6,3.1-1.6,3.9-0.8L232.8,139.7z"/>
</g>
</svg>
