<?xml version="1.0" encoding="utf-8"?><svg xmlns="http://www.w3.org/2000/svg" xmlns:xlink="http://www.w3.org/1999/xlink"><symbol viewBox="193.3 175.3 25.3 25.3" id="icon--instagram"><path d="M215.5 175.3h-18.9c-2 0-3.2 1.1-3.2 3.1v19.1c0 1.9 1.2 3.1 3.1 3.1h19.2c.5 0 .9-.1 1.2-.2 1-.4 1.8-1.5 1.8-2.7v-19.6c0-.6-.2-1.1-.5-1.7-.6-.7-1.5-1.1-2.7-1.1zm-3.6 3h2.8c.6 0 .9.3.9.9v2.8c0 .6-.4.9-1 1h-2.8c-.6 0-.9-.3-1-.9v-2.9c.2-.6.5-.9 1.1-.9zm-5.9 4.8c2.7 0 4.9 2.2 4.9 4.8 0 2.7-2.1 4.9-4.8 4.9-2.7 0-4.8-2.2-4.8-4.9-.1-2.6 2.1-4.7 4.7-4.8zm9.7 3.6v9.5c0 1-.3 1.2-1.2 1.2h-16.9c-.9 0-1.2-.3-1.2-1.1v-10.5h2.1c-.5 3 .2 5.6 2.4 7.7 1.7 1.5 3.6 2.2 5.8 2 4.1-.3 8.1-4.1 7.1-9.6h2.1c-.2.4-.2.6-.2.8z"/></symbol><symbol viewBox="0 0 30 28.7" id="icon--kontact"><path d="M27.6 13.4c-3 4-3.4 3.7-.9 6 2.4 2.2 2.9 3.3 3 3.5 0 0 1 1.8-1.1 1.8l-4 .1c-.9.2-2-.6-2-.6-1.5-1-2.9-3.7-4-3.4 0 0-1.1.4-1.1 2.8 0 .5-.2.8-.2.8s-.3.3-.8.3h-1.8c-4 .3-7.4-3.4-7.4-3.4S3.4 17.2.1 9.4c-.2-.5 0-.8 0-.8s.2-.3.9-.3h4.3c.4 0 .7.3.7.3s.3.2.4.5C7 10.8 8 12.4 8 12.4c1.6 3.2 2.6 3.8 3.2 3.4 0 0 .8-.5.6-4.4-.1-1.4-.5-2-.5-2-.4-.5-1-.6-1.3-.7-.2 0 .2-.6.7-.8.8-.4 2.1-.4 3.7-.4 1.3 0 1.6.1 2.1.2 1.5.4 1 1.7 1 5 0 1.1-.2 2.5.6 3 .3.2 1.1 0 3.1-3.4 0 0 .9-1.6 1.7-3.5.1-.3.4-.5.4-.5s.3-.1.6-.1h4.5c1.3-.1 1.6.6 1.6.6.2.6-.5 2.1-2.4 4.6z"/></symbol><symbol viewBox="463.9 119.8 76.5 19.1" id="icon--korzina"><path d="M540.4 133.9c0 2.7-2.2 4.9-4.9 4.9h-66.6c-2.7 0-4.9-2.2-4.9-4.9v-9.2c0-2.7 2.2-4.9 4.9-4.9h66.6c2.7 0 4.9 2.2 4.9 4.9v9.2z"/><path opacity=".58" d="M535.6 119.8h-66.9c-1.5 0-2.9.7-3.8 1.7-.5.7-.8 1.6-.8 2.5v.7c0-2.5 2-4.5 4.6-4.5h66.9c2.5 0 4.6 2 4.6 4.5v-.7c0-.9-.3-1.8-.8-2.5-.9-1.1-2.3-1.7-3.8-1.7z"/><path d="M535.3 138.4H469c-1.6 0-2.9-.8-3.7-2-.7-.8-1.2-2-1.2-3.2v.7c0 2.7 2.2 4.9 4.9 4.9h66.3c2.7 0 4.9-2.2 4.9-4.9v-.7c0 1.2-.4 2.3-1.2 3.2-.8 1.2-2.1 2-3.7 2z"/><path d="M481.8 127.3c0 .4-.3.7-.7.7h-9.8c-.4 0-.7-.3-.7-.7 0-.4.3-.7.7-.7h9.8c.4 0 .7.3.7.7zm-10.3 1.1s.1 4.6 1 4.9c.9.3 7.2.4 7.7 0s.8-4.9.8-4.9h-9.5zm1.4 4.3l-.3-3.5h.5l.3 3.5h-.5zm1.4 0l-.3-3.5h.5l.3 3.5h-.5zm2.5 0h-1.1v-3.5h1.1v3.5zm1.4 0h-.5l.3-3.5h.5l-.3 3.5zm1.3 0h-.5l.3-3.5h.5l-.3 3.5z"/><path d="M473.5 127.2c-.1.1-.3.1-.5-.1s-.2-.4-.2-.5l3-3.6c.1-.1.3-.1.5.1s.2.4.2.5l-3 3.6z"/><path d="M479.7 126.7c.1.1.1.3-.1.5s-.4.2-.5.1l-3.2-3.4c-.1-.1-.1-.3.1-.5s.4-.2.5-.1l3.2 3.4zM488.1 126.4v3h.2l2.2-3h1.6l-2.6 3.2c1 .2 1.5.8 1.8 1.7.3.7.5 1.5.8 2.1h-1.4c-.2-.5-.4-1.1-.6-1.6-.3-.8-.7-1.5-1.7-1.5h-.3v3.1h-1.3v-7.1l1.3.1zm10.8 3.4c0 2.4-1.4 3.7-3.4 3.7s-3.3-1.5-3.3-3.6c0-2.2 1.3-3.7 3.4-3.7 2.1.1 3.3 1.6 3.3 3.6zm-5.3.1c0 1.4.7 2.6 2 2.6 1.2 0 2-1.2 2-2.6 0-1.3-.7-2.6-2-2.6s-2 1.2-2 2.6zm6.4-3.4c.4-.1 1.1-.2 2-.2 1 0 1.6.2 2.1.6.4.3.7.9.7 1.6 0 .7-.2 1.2-.6 1.6-.5.5-1.3.8-2.2.8-.2 0-.4 0-.6-.1v2.7H500v-7zm1.3 3.3c.2.1.4.1.6.1 1 0 1.6-.5 1.6-1.3s-.6-1.2-1.4-1.2c-.3 0-.6 0-.7.1l-.1 2.3zm4.1-3c.5-.3 1.2-.6 2.1-.6 1.4 0 2.3.7 2.3 1.8 0 .9-.6 1.5-1.4 1.7.9.1 1.7.7 1.7 1.7 0 1.5-1.5 2.1-2.8 2.1-.7 0-1.4-.2-2-.5l.3-1c.3.2 1 .4 1.6.4.9 0 1.5-.4 1.5-1.1 0-.9-.9-1.1-1.7-1.1h-.6v-1h.6c.8 0 1.5-.4 1.5-1.1 0-.6-.4-.9-1.2-.9-.6 0-1.1.2-1.5.4l-.4-.8zm6.9-.4v2.5c0 1.1 0 2.2-.1 3.1.4-.8.8-1.6 1.3-2.4l1.9-3.2h1.3v7.1h-1.2V131c0-1.1 0-2 .1-2.9-.3.8-.8 1.7-1.3 2.4l-1.8 3h-1.4v-7.1h1.2zm7.2 0v2.8h3v-2.8h1.3v7.1h-1.3v-3.1h-3v3.1h-1.3v-7.1h1.3zm7.2 5.1l-.6 2h-1.3l2.3-7.1h1.6l2.3 7.1h-1.4l-.6-2h-2.3zm2-1l-.6-1.7c-.1-.4-.3-.9-.3-1.3-.1.4-.2.9-.3 1.3l-.6 1.7h1.8z"/></symbol><symbol viewBox="121.9 95.8 20.8 19.8" id="icon--krestik"><path d="M139.5 115.6h-14.4c-1.8 0-3.2-1.4-3.2-3.2V98.9c0-1.8 1.4-3.2 3.2-3.2h14.4c1.8 0 3.2 1.4 3.2 3.2v13.4c-.1 1.8-1.5 3.3-3.2 3.3zm-14.4-18.8c-1.2 0-2.1 1-2.1 2.1v13.4c0 1.2 1 2.1 2.1 2.1h14.4c1.2 0 2.1-1 2.1-2.1V98.9c0-1.2-1-2.1-2.1-2.1h-14.4z"/><path d="M126.8 100.1c.5-.5 1.4-.5 1.9 0l9.1 9.1c.5.5.5 1.4 0 1.9l-.1.1c-.5.5-1.4.5-1.9 0l-9.1-9.1c-.5-.5-.5-1.4 0-1.9l.1-.1z"/><path d="M137.8 100.3c.5.5.5 1.4 0 1.9l-9.1 9.1c-.5.5-1.4.5-1.9 0l-.1-.1c-.5-.5-.5-1.4 0-1.9l9.1-9.1c.5-.5 1.4-.5 1.9 0l.1.1z"/></symbol><symbol viewBox="445.6 132 6.2 10.2" id="icon--slider_levay"><path d="M451.5 133.8c.4-.4.4-1.1 0-1.5s-1.1-.4-1.5 0l-4 4-.1.1c-.2.2-.3.5-.3.7 0 .3.1.6.3.7l.1.1 4 4c.4.4 1.1.4 1.5 0 .4-.4.4-1.1 0-1.5l-2.3-2.3-.2-.2-.1-.1c-.2-.2-.3-.5-.3-.7s.1-.5.3-.7l.1-.1.2-.2 2.3-2.3z"/></symbol><symbol viewBox="445.6 132 6.2 10.2" id="icon--slider_pravay"><path d="M448.2 136l.2.2.1.1c.2.2.3.5.3.7s-.1.6-.3.7l-.1.1-.2.2-2.3 2.3c-.4.4-.4 1.1 0 1.5.4.4 1.1.4 1.5 0l4-4 .1-.1c.2-.2.3-.5.3-.7 0-.3-.1-.5-.3-.7l-.1-.1-4-4c-.4-.4-1.1-.4-1.5 0s-.4 1.1 0 1.5l2.3 2.3z"/></symbol><symbol viewBox="675.5 356.9 67 66.7" id="icon--tel_znachok"><path d="M717.2 393.5c-2 0-2.3 4.1-3.8 4.1s-5-1.9-7.4-4.2l-.2-.2c-2.5-2.3-4.2-5.8-4.2-7.2s4.2-1.7 4.2-3.8-6-8.6-8.1-8.5c-2.2.2-5.8 4.2-5.3 7.7s4.7 9.7 10.2 15.2c5.5 5.3 11.9 9.6 15.5 10 3.6.5 7.7-3.1 7.8-5.2.2-2.1-6.7-7.9-8.7-7.9z"/><path d="M709 356.9c-18.5 0-33.5 15-33.5 33.4 0 18.3 15 33.4 33.5 33.4s33.5-15 33.5-33.4-15-33.4-33.5-33.4zm0 60.6c-15 0-27.3-12.2-27.3-27.1 0-14.9 12.2-27.1 27.3-27.1 15 0 27.3 12.2 27.3 27.1 0 14.9-12.3 27.1-27.3 27.1z"/></symbol><symbol viewBox="122.7 71.1 19.7 18.7" id="icon--znac_minus"><path d="M139.8 71.1h-14.4c-1.4 0-2.7 1.2-2.7 2.7v13.4c0 1.4 1.2 2.7 2.7 2.7h14.4c1.4 0 2.7-1.2 2.7-2.7V73.8c-.1-1.5-1.3-2.7-2.7-2.7z"/><path d="M139.2 80.8c0 .6-.5 1-1 1H127c-.6 0-1-.5-1-1v-1.1c0-.6.5-1 1-1h11.2c.6 0 1 .5 1 1v1.1z"/></symbol><symbol viewBox="122.5 96.3 19.7 18.7" id="icon--znac_plus"><path d="M139.5 96.3h-14.4c-1.4 0-2.7 1.2-2.7 2.7v13.4c0 1.4 1.2 2.7 2.7 2.7h14.4c1.4 0 2.7-1.2 2.7-2.7V98.9c-.1-1.4-1.3-2.6-2.7-2.6z"/><path d="M130.7 100.1v4.1h-4.1c-.6 0-1 .5-1 1v1.1c0 .6.5 1 1 1h4.1v4.1c0 .6.5 1 1 1h1.1c.6 0 1-.5 1-1v-4.1h4.1c.6 0 1-.5 1-1v-1.1c0-.6-.5-1-1-1h-4.1v-4.1c0-.6-.5-1-1-1h-1.1c-.5 0-1 .4-1 1z"/></symbol><symbol viewBox="-218.6 369.2 28.2 41.7" id="icon--znac_publy"><path d="M-215 410.9v-9.4h-3.6v-4.1h3.5v-2.6h-3.5v-4.2h3.5v-21.4h11.6c3.8.1 7.1 1.2 9.8 4 1.9 2.1 2.9 4.6 3.2 7.4.3 2.8-.2 5.5-1.6 8-1.9 3.3-4.9 5.1-8.5 5.8-2.2.4-4.3.3-6.5.3h-2.1v2.6h15.5v4.1h-15.6v9.4c-1.9.1-3.8.1-5.7.1zm5.8-36.9v16.6h5.1c1.6 0 3-.4 4.3-1.4 2.8-2.1 3.9-4.9 3.5-8.3s-2.3-5.7-5.6-6.6c-2.3-.8-4.8-.4-7.3-.3 0-.1 0-.1 0 0z"/></symbol></svg>