<?xml version="1.0" encoding="utf-8"?><svg xmlns="http://www.w3.org/2000/svg" xmlns:xlink="http://www.w3.org/1999/xlink"><symbol viewBox="0 0 40 35" id="icon--hamburger"><path d="M40 2.5A2.5 2.5 0 0 1 37.5 5h-35a2.5 2.5 0 1 1 0-5h35A2.5 2.5 0 0 1 40 2.5zm0 15a2.5 2.5 0 0 1-2.5 2.5h-35a2.5 2.5 0 1 1 0-5h35a2.5 2.5 0 0 1 2.5 2.5zm0 15a2.5 2.5 0 0 1-2.5 2.5h-35a2.5 2.5 0 1 1 0-5h35a2.5 2.5 0 0 1 2.5 2.5z"/></symbol><symbol viewBox="193.3 175.3 25.3 25.3" id="icon--instagram"><path d="M215.5 175.3h-18.9c-2 0-3.2 1.1-3.2 3.1v19.1c0 1.9 1.2 3.1 3.1 3.1h19.2c.5 0 .9-.1 1.2-.2 1-.4 1.8-1.5 1.8-2.7v-19.6c0-.6-.2-1.1-.5-1.7-.6-.7-1.5-1.1-2.7-1.1zm-3.6 3h2.8c.6 0 .9.3.9.9v2.8c0 .6-.4.9-1 1h-2.8c-.6 0-.9-.3-1-.9v-2.9c.2-.6.5-.9 1.1-.9zm-5.9 4.8c2.7 0 4.9 2.2 4.9 4.8 0 2.7-2.1 4.9-4.8 4.9-2.7 0-4.8-2.2-4.8-4.9-.1-2.6 2.1-4.7 4.7-4.8zm9.7 3.6v9.5c0 1-.3 1.2-1.2 1.2h-16.9c-.9 0-1.2-.3-1.2-1.1v-10.5h2.1c-.5 3 .2 5.6 2.4 7.7 1.7 1.5 3.6 2.2 5.8 2 4.1-.3 8.1-4.1 7.1-9.6h2.1c-.2.4-.2.6-.2.8z"/></symbol><symbol viewBox="0 0 203.3 22.8" id="icon--italliano"><path fill-rule="evenodd" clip-rule="evenodd" d="M25.2.6l.1 3.9-.7-.1c-.6-.1-1.4-.2-2.3-.2v14.4c.9 0 1.7-.1 2.3-.2l.7-.1-.1 3.9-6.6-.1-2.7.1c0-.4 0-1 .1-1.8s.1-1.4.1-1.8V9.4C11.4 16 9 20.3 9 22.2l-2.4-.1-6.6.1v-3.9l.7.1c.6.1 1.4.2 2.3.2V4.2c-.9 0-1.7.1-2.3.2l-.7.1L.1.6l6.6.1L9.4.6c0 .4-.1 1-.2 1.8S9 3.8 9 4.2v9.2C13.8 6.8 16.2 2.5 16.2.6l2.4.1 6.6-.1zM50.5.3l.8 8.6-3.6.3c-.2-1.8-.7-3.1-1.5-3.9-.9-.8-2.1-1.1-3.7-1.1v14.4c.6 0 1.1-.1 1.8-.2l.7-.1-.1 3.9-5.3-.1-5.3.1-.3-3.9.7.1c.6.1 1.2.2 1.8.2V4.2c-1.6 0-2.9.4-3.7 1.1-.9.8-1.4 2-1.5 3.9l-3.6-.3.8-8.6c4.5.2 7.5.3 9.1.3h3.6l9.3-.3zM68 .6l4.8 11.5h3v3.4h-1.6l1 2.3c.1.3.2.5.3.6s.3.1.5.1.7 0 1.3-.1l-.1 3.9-6.7-.1-3.9.1-.1-3.9.7.1c.9.1 1.5.1 1.8.1l-1.4-3.3h-1.7c-1.2 0-3 0-5.4.1l-1.4 3.2s.6 0 1.7-.1l.7-.1-.1 3.8-4-.1-4.1.1-.1-3.9c.6.1 1 .2 1.3.2.4 0 .7-.2.9-.7l1-2.3h-1.7v-4.3c1 .1 2.1.2 3.4.3l2.2-5.2c.9-2.1 1.3-4.2 1.3-6.3l6.4.6zm-5.9 11.3c1.7.2 3 .2 3.9.2h.4l-2.2-5.2-2.1 5zM103.5.6l.1 3.9-.7-.1c-.6-.1-1.4-.2-2.3-.2v14.4c.9 0 1.7-.1 2.3-.2l.7-.1-.1 3.9-6.6-.1-4.8.1.1-3.8.7.1c.8.1 1.3.1 1.6.1V4.2h-3.9c-.5 0-1 .7-1.4 2.2-.4 1.5-.7 3.2-.9 5-.2 1.9-.5 3.7-.8 5.6-.3 1.9-.6 3.1-1 3.7-.8 1.4-2.2 2-4 2-1 0-2-.2-3.1-.6l.1-6c.7.3 1.3.4 1.6.4.5 0 1-.2 1.4-.7.4-.4.8-2.3 1.2-5.5.4-3.2.8-5.3 1.3-6.2h-.4c-.9 0-1.7.1-2.3.2l-.7.1.1-3.9 9.9.1h11.9zm11.6 11v7.1h1.8c1.4 0 2.4-.3 3.1-.9.7-.6 1.1-1.6 1.1-2.8 0-1.1-.4-2-1.1-2.6-.7-.6-1.8-.9-3.1-.9l-1.8.1zm3-11l.1 3.9-.7-.1c-.6-.1-1.4-.2-2.3-.2V8l3.6-.1c2.5 0 4.5.7 6.1 2 1.5 1.3 2.3 3.1 2.3 5.3 0 2.2-.7 3.9-2.1 5.2-1.4 1.3-3.3 2-5.6 2l-13.2-.3-.1-3.9.8.2c.7.1 1.5.2 2.3.2V4.2c-.9 0-1.7.1-2.3.2l-1 .1.1-3.9 6 .1 6-.1zm24.4 10.1V4h-1.7c-1.4 0-2.5.3-3.2.9-.7.6-1.1 1.4-1.1 2.4 0 2.3 1.4 3.4 4.3 3.4h1.7zM151.4.6l.1 3.9c-1-.2-2-.3-3.1-.3v14.4c.8 0 1.6-.1 2.2-.2l.8-.1-.1 3.9-6-.1-5.4.1.2-3.8.7.1c.7.1 1.2.1 1.5.1v-4.7H141c-.8 1-2.2 3.3-4.3 6.9-.8 1.4-2.2 2-4.3 2-1.1 0-2.2-.2-3.3-.6l.1-6c1.5.6 2.5.8 3 .8.6 0 1.1-.2 1.4-.5.9-.9 2.1-2.1 3.7-3.4-2.1-.3-3.8-.9-5.1-2.1-1.3-1.1-1.9-2.5-1.9-4.3 0-2 .8-3.6 2.3-4.7 1.5-1.1 3.6-1.7 6.1-1.7l12.7.3zm27.7 0l.1 3.9-.7-.1c-.6-.1-1.4-.2-2.3-.2v14.4c.9 0 1.7-.1 2.3-.2l.7-.1-.1 3.9-6.6-.1-4.8.1-.1-3.9.7.1c.9.1 1.4.1 1.7.1v-5.3c-1.5-.1-2.7-.1-3.6-.1-.9 0-2.1 0-3.6.1v5.3c.3 0 .9 0 1.7-.1l.7-.1-.1 3.9-4.8-.1-6.6.1-.1-3.9.7.1c.6.1 1.4.2 2.3.2V4.2c-.9 0-1.7.1-2.3.2l-.7.1.1-3.9 6.6.1 4.8-.1.1 3.9-.7-.1c-.9-.1-1.4-.1-1.7-.1v5.3c1.5.1 2.7.1 3.6.1.9 0 2.1 0 3.6-.1V4.2c-.3 0-.9 0-1.7.1l-.7.1.1-3.9 4.8.1h6.6zm21.4 2.5c1.8 1.9 2.8 4.6 2.8 8.2 0 3.6-.9 6.3-2.8 8.2-1.8 1.9-4.5 2.8-8 2.8s-6.2-.9-8-2.8c-1.8-1.9-2.8-4.6-2.8-8.2 0-3.6.9-6.3 2.8-8.2 1.8-1.9 4.5-2.8 8-2.8s6.1.9 8 2.8zm-4.3 13.8c.7-1.3 1.1-3.1 1.1-5.6 0-2.4-.5-4.3-1.4-5.6-.9-1.3-2.3-1.9-4-1.9-1.4 0-2.4.6-3.1 1.9-.7 1.3-1.1 3.1-1.1 5.6 0 2.4.5 4.3 1.4 5.6.9 1.3 2.3 1.9 4 1.9 1.3.1 2.4-.6 3.1-1.9z"/></symbol><symbol viewBox="0 0 203.3 51.1" id="icon--italliano_logo"><path fill-rule="evenodd" clip-rule="evenodd" d="M25.2.6l.1 3.9-.7-.1c-.6-.1-1.4-.2-2.3-.2v14.4c.9 0 1.7-.1 2.3-.2l.7-.1-.1 3.9-6.6-.1-2.7.1c0-.4 0-1 .1-1.8s.1-1.4.1-1.8V9.4C11.4 16 9 20.3 9 22.2l-2.4-.1-6.6.1v-3.9l.7.1c.6.1 1.4.2 2.3.2V4.2c-.9 0-1.7.1-2.3.2l-.7.1L.1.6l6.6.1L9.4.6c0 .4-.1 1-.2 1.8S9 3.8 9 4.2v9.2C13.8 6.8 16.2 2.5 16.2.6l2.4.1 6.6-.1zM50.5.3l.8 8.6-3.6.3c-.2-1.8-.7-3.1-1.5-3.9-.9-.8-2.1-1.1-3.7-1.1v14.4c.6 0 1.1-.1 1.8-.2l.7-.1-.1 3.9-5.3-.1-5.3.1-.3-3.9.7.1c.6.1 1.2.2 1.8.2V4.2c-1.6 0-2.9.4-3.7 1.1-.9.8-1.4 2-1.5 3.9l-3.6-.3.8-8.6c4.5.2 7.5.3 9.1.3h3.6l9.3-.3zM68 .6l4.8 11.5h3v3.4h-1.6l1 2.3c.1.3.2.5.3.6s.3.1.5.1.7 0 1.3-.1l-.1 3.9-6.7-.1-3.9.1-.1-3.9.7.1c.9.1 1.5.1 1.8.1l-1.4-3.3h-1.7c-1.2 0-3 0-5.4.1l-1.4 3.2s.6 0 1.7-.1l.7-.1-.1 3.8-4-.1-4.1.1-.1-3.9c.6.1 1 .2 1.3.2.4 0 .7-.2.9-.7l1-2.3h-1.7v-4.3c1 .1 2.1.2 3.4.3l2.2-5.2c.9-2.1 1.3-4.2 1.3-6.3l6.4.6zm-5.9 11.3c1.7.2 3 .2 3.9.2h.4l-2.2-5.2-2.1 5zM103.5.6l.1 3.9-.7-.1c-.6-.1-1.4-.2-2.3-.2v14.4c.9 0 1.7-.1 2.3-.2l.7-.1-.1 3.9-6.6-.1-4.8.1.1-3.8.7.1c.8.1 1.3.1 1.6.1V4.2h-3.9c-.5 0-1 .7-1.4 2.2-.4 1.5-.7 3.2-.9 5-.2 1.9-.5 3.7-.8 5.6-.3 1.9-.6 3.1-1 3.7-.8 1.4-2.2 2-4 2-1 0-2-.2-3.1-.6l.1-6c.7.3 1.3.4 1.6.4.5 0 1-.2 1.4-.7.4-.4.8-2.3 1.2-5.5.4-3.2.8-5.3 1.3-6.2h-.4c-.9 0-1.7.1-2.3.2l-.7.1.1-3.9 9.9.1h11.9zm11.6 11v7.1h1.8c1.4 0 2.4-.3 3.1-.9.7-.6 1.1-1.6 1.1-2.8 0-1.1-.4-2-1.1-2.6-.7-.6-1.8-.9-3.1-.9l-1.8.1zm3-11l.1 3.9-.7-.1c-.6-.1-1.4-.2-2.3-.2V8l3.6-.1c2.5 0 4.5.7 6.1 2 1.5 1.3 2.3 3.1 2.3 5.3 0 2.2-.7 3.9-2.1 5.2-1.4 1.3-3.3 2-5.6 2l-13.2-.3-.1-3.9.8.2c.7.1 1.5.2 2.3.2V4.2c-.9 0-1.7.1-2.3.2l-1 .1.1-3.9 6 .1 6-.1zm24.4 10.1V4h-1.7c-1.4 0-2.5.3-3.2.9-.7.6-1.1 1.4-1.1 2.4 0 2.3 1.4 3.4 4.3 3.4h1.7zM151.4.6l.1 3.9c-1-.2-2-.3-3.1-.3v14.4c.8 0 1.6-.1 2.2-.2l.8-.1-.1 3.9-6-.1-5.4.1.2-3.8.7.1c.7.1 1.2.1 1.5.1v-4.7H141c-.8 1-2.2 3.3-4.3 6.9-.8 1.4-2.2 2-4.3 2-1.1 0-2.2-.2-3.3-.6l.1-6c1.5.6 2.5.8 3 .8.6 0 1.1-.2 1.4-.5.9-.9 2.1-2.1 3.7-3.4-2.1-.3-3.8-.9-5.1-2.1-1.3-1.1-1.9-2.5-1.9-4.3 0-2 .8-3.6 2.3-4.7 1.5-1.1 3.6-1.7 6.1-1.7l12.7.3zm27.7 0l.1 3.9-.7-.1c-.6-.1-1.4-.2-2.3-.2v14.4c.9 0 1.7-.1 2.3-.2l.7-.1-.1 3.9-6.6-.1-4.8.1-.1-3.9.7.1c.9.1 1.4.1 1.7.1v-5.3c-1.5-.1-2.7-.1-3.6-.1-.9 0-2.1 0-3.6.1v5.3c.3 0 .9 0 1.7-.1l.7-.1-.1 3.9-4.8-.1-6.6.1-.1-3.9.7.1c.6.1 1.4.2 2.3.2V4.2c-.9 0-1.7.1-2.3.2l-.7.1.1-3.9 6.6.1 4.8-.1.1 3.9-.7-.1c-.9-.1-1.4-.1-1.7-.1v5.3c1.5.1 2.7.1 3.6.1.9 0 2.1 0 3.6-.1V4.2c-.3 0-.9 0-1.7.1l-.7.1.1-3.9 4.8.1h6.6zm21.4 2.5c1.8 1.9 2.8 4.6 2.8 8.2 0 3.6-.9 6.3-2.8 8.2-1.8 1.9-4.5 2.8-8 2.8s-6.2-.9-8-2.8c-1.8-1.9-2.8-4.6-2.8-8.2 0-3.6.9-6.3 2.8-8.2 1.8-1.9 4.5-2.8 8-2.8s6.1.9 8 2.8zm-4.3 13.8c.7-1.3 1.1-3.1 1.1-5.6 0-2.4-.5-4.3-1.4-5.6-.9-1.3-2.3-1.9-4-1.9-1.4 0-2.4.6-3.1 1.9-.7 1.3-1.1 3.1-1.1 5.6 0 2.4.5 4.3 1.4 5.6.9 1.3 2.3 1.9 4 1.9 1.3.1 2.4-.6 3.1-1.9zM8.4 34v7H10c3 0 4.5-1.2 4.5-3.5 0-1.3-.4-2.2-1.1-2.7-.7-.5-1.8-.8-3.4-.8H8.4zM.1 30.9l8.6-.2h4c2.3 0 4.1.6 5.5 1.8 1.3 1.2 2 2.9 2 5 0 2.2-.7 3.8-2 5-1.3 1.2-3.2 1.8-5.5 1.8-.5 0-1.3 0-2.3-.1-1 0-1.6-.1-1.9-.1v3.4c.9 0 1.6-.1 2.2-.2l.7-.1-.1 3.6-5.5-.1-5.5.1-.3-3.6.7.1c.6.1 1.3.2 2.2.2V34.1c-.7 0-1.4.1-2.1.2l-.8.2.1-3.6zm35.8-.1l.1 3.6-.7-.1c-.6-.1-1.3-.2-2.2-.2v13.3c.9 0 1.6-.1 2.2-.2l.7-.1-.1 3.6-5.5-.1-5.5.1-.1-3.6.7.1c.6.1 1.3.2 2.2.2V34.2c-.9 0-1.6.1-2.2.2l-.7.1.1-3.6 5.5.1 5.5-.2zm23.3-.1l-.3 4.5-11.1 12.3H50c.4 0 1 0 1.7-.1s1.2-.1 1.6-.3c.4-.1.8-.3 1.3-.5s.8-.5 1.1-.8c.2-.3.5-.7.7-1.2.2-.5.3-1.1.4-1.7l3.3.3-.7 7.9c-6.7-.2-10.7-.3-12.2-.3h-1.7l-4.9.2-.1-4.3 11.6-12.5h-2.9c-.4 0-.8 0-1.3.1-.5 0-.8.1-1.1.2-.2.1-.5.2-.8.3-.3.1-.5.3-.7.5-.1.2-.3.4-.5.7-.2.3-.3.6-.4.9-.1.4-.1.8-.2 1.2l-3.3-.3.7-7.1c5.3.2 8.7.3 10.2.3h3l4.4-.3zm23.9 0l-.3 4.5-11 12.3h2.1c.4 0 1 0 1.7-.1s1.2-.1 1.6-.3c.4-.1.8-.3 1.3-.5s.8-.5 1.1-.8c.2-.3.5-.7.7-1.2.2-.5.3-1.1.4-1.7l3.3.3-.7 7.9c-6.7-.2-10.7-.3-12.2-.3h-1.7l-4.8.2-.1-4.3 11.6-12.5h-2.9c-.4 0-.8 0-1.3.1-.5 0-.8.1-1.1.2-.2.1-.5.2-.8.3-.3.1-.5.3-.7.5-.1.2-.3.4-.5.7-.2.3-.3.6-.4.9-.1.4-.1.8-.2 1.2l-3.3-.3.7-7.1c5.3.2 8.7.3 10.2.3h3l4.3-.3zm18.7.2l4.5 10.6h2.8v3.1h-1.5l.9 2.1c.1.3.2.5.3.6.1.1.2.1.4.1s.6 0 1.2-.1l-.1 3.6-6.2-.1-3.6.1-.1-3.6.7.1c.8.1 1.4.1 1.6.1l-1.3-3h-1.6c-1.1 0-2.8 0-5 .1l-1.3 3s.5 0 1.6-.1l.7-.1-.1 3.5-3.7-.1-3.8.1-.1-3.6c.6.1 1 .2 1.2.2.4 0 .7-.2.9-.7l.9-2.2h-1.6v-3.9c.9.1 2 .2 3.2.3l2.1-4.8c.8-1.9 1.2-3.9 1.2-5.9l5.8.6zm-5.5 10.4c1.5.1 2.7.2 3.6.2h.4l-2-4.8-2 4.6z"/></symbol><symbol viewBox="0 0 203.3 51.1" id="icon--italliano_logo_bez_cveta"><path fill-rule="evenodd" clip-rule="evenodd" d="M25.2.6l.1 3.9-.7-.1c-.6-.1-1.4-.2-2.3-.2v14.4c.9 0 1.7-.1 2.3-.2l.7-.1-.1 3.9-6.6-.1-2.7.1c0-.4 0-1 .1-1.8s.1-1.4.1-1.8V9.4C11.4 16 9 20.3 9 22.2l-2.4-.1-6.6.1v-3.9l.7.1c.6.1 1.4.2 2.3.2V4.2c-.9 0-1.7.1-2.3.2l-.7.1L.1.6l6.6.1L9.4.6c0 .4-.1 1-.2 1.8S9 3.8 9 4.2v9.2C13.8 6.8 16.2 2.5 16.2.6l2.4.1 6.6-.1zM50.5.3l.8 8.6-3.6.3c-.2-1.8-.7-3.1-1.5-3.9-.9-.8-2.1-1.1-3.7-1.1v14.4c.6 0 1.1-.1 1.8-.2l.7-.1-.1 3.9-5.3-.1-5.3.1-.3-3.9.7.1c.6.1 1.2.2 1.8.2V4.2c-1.6 0-2.9.4-3.7 1.1-.9.8-1.4 2-1.5 3.9l-3.6-.3.8-8.6c4.5.2 7.5.3 9.1.3h3.6l9.3-.3zM68 .6l4.8 11.5h3v3.4h-1.6l1 2.3c.1.3.2.5.3.6s.3.1.5.1.7 0 1.3-.1l-.1 3.9-6.7-.1-3.9.1-.1-3.9.7.1c.9.1 1.5.1 1.8.1l-1.4-3.3h-1.7c-1.2 0-3 0-5.4.1l-1.4 3.2s.6 0 1.7-.1l.7-.1-.1 3.8-4-.1-4.1.1-.1-3.9c.6.1 1 .2 1.3.2.4 0 .7-.2.9-.7l1-2.3h-1.7v-4.3c1 .1 2.1.2 3.4.3l2.2-5.2c.9-2.1 1.3-4.2 1.3-6.3l6.4.6zm-5.9 11.3c1.7.2 3 .2 3.9.2h.4l-2.2-5.2-2.1 5zM103.5.6l.1 3.9-.7-.1c-.6-.1-1.4-.2-2.3-.2v14.4c.9 0 1.7-.1 2.3-.2l.7-.1-.1 3.9-6.6-.1-4.8.1.1-3.8.7.1c.8.1 1.3.1 1.6.1V4.2h-3.9c-.5 0-1 .7-1.4 2.2-.4 1.5-.7 3.2-.9 5-.2 1.9-.5 3.7-.8 5.6-.3 1.9-.6 3.1-1 3.7-.8 1.4-2.2 2-4 2-1 0-2-.2-3.1-.6l.1-6c.7.3 1.3.4 1.6.4.5 0 1-.2 1.4-.7.4-.4.8-2.3 1.2-5.5.4-3.2.8-5.3 1.3-6.2h-.4c-.9 0-1.7.1-2.3.2l-.7.1.1-3.9 9.9.1h11.9zm11.6 11v7.1h1.8c1.4 0 2.4-.3 3.1-.9.7-.6 1.1-1.6 1.1-2.8 0-1.1-.4-2-1.1-2.6-.7-.6-1.8-.9-3.1-.9l-1.8.1zm3-11l.1 3.9-.7-.1c-.6-.1-1.4-.2-2.3-.2V8l3.6-.1c2.5 0 4.5.7 6.1 2 1.5 1.3 2.3 3.1 2.3 5.3 0 2.2-.7 3.9-2.1 5.2-1.4 1.3-3.3 2-5.6 2l-13.2-.3-.1-3.9.8.2c.7.1 1.5.2 2.3.2V4.2c-.9 0-1.7.1-2.3.2l-1 .1.1-3.9 6 .1 6-.1zm24.4 10.1V4h-1.7c-1.4 0-2.5.3-3.2.9-.7.6-1.1 1.4-1.1 2.4 0 2.3 1.4 3.4 4.3 3.4h1.7zM151.4.6l.1 3.9c-1-.2-2-.3-3.1-.3v14.4c.8 0 1.6-.1 2.2-.2l.8-.1-.1 3.9-6-.1-5.4.1.2-3.8.7.1c.7.1 1.2.1 1.5.1v-4.7H141c-.8 1-2.2 3.3-4.3 6.9-.8 1.4-2.2 2-4.3 2-1.1 0-2.2-.2-3.3-.6l.1-6c1.5.6 2.5.8 3 .8.6 0 1.1-.2 1.4-.5.9-.9 2.1-2.1 3.7-3.4-2.1-.3-3.8-.9-5.1-2.1-1.3-1.1-1.9-2.5-1.9-4.3 0-2 .8-3.6 2.3-4.7 1.5-1.1 3.6-1.7 6.1-1.7l12.7.3zm27.7 0l.1 3.9-.7-.1c-.6-.1-1.4-.2-2.3-.2v14.4c.9 0 1.7-.1 2.3-.2l.7-.1-.1 3.9-6.6-.1-4.8.1-.1-3.9.7.1c.9.1 1.4.1 1.7.1v-5.3c-1.5-.1-2.7-.1-3.6-.1-.9 0-2.1 0-3.6.1v5.3c.3 0 .9 0 1.7-.1l.7-.1-.1 3.9-4.8-.1-6.6.1-.1-3.9.7.1c.6.1 1.4.2 2.3.2V4.2c-.9 0-1.7.1-2.3.2l-.7.1.1-3.9 6.6.1 4.8-.1.1 3.9-.7-.1c-.9-.1-1.4-.1-1.7-.1v5.3c1.5.1 2.7.1 3.6.1.9 0 2.1 0 3.6-.1V4.2c-.3 0-.9 0-1.7.1l-.7.1.1-3.9 4.8.1h6.6zm21.4 2.5c1.8 1.9 2.8 4.6 2.8 8.2 0 3.6-.9 6.3-2.8 8.2-1.8 1.9-4.5 2.8-8 2.8s-6.2-.9-8-2.8c-1.8-1.9-2.8-4.6-2.8-8.2 0-3.6.9-6.3 2.8-8.2 1.8-1.9 4.5-2.8 8-2.8s6.1.9 8 2.8zm-4.3 13.8c.7-1.3 1.1-3.1 1.1-5.6 0-2.4-.5-4.3-1.4-5.6-.9-1.3-2.3-1.9-4-1.9-1.4 0-2.4.6-3.1 1.9-.7 1.3-1.1 3.1-1.1 5.6 0 2.4.5 4.3 1.4 5.6.9 1.3 2.3 1.9 4 1.9 1.3.1 2.4-.6 3.1-1.9zM8.4 34v7H10c3 0 4.5-1.2 4.5-3.5 0-1.3-.4-2.2-1.1-2.7-.7-.5-1.8-.8-3.4-.8H8.4zM.1 30.9l8.6-.2h4c2.3 0 4.1.6 5.5 1.8 1.3 1.2 2 2.9 2 5 0 2.2-.7 3.8-2 5-1.3 1.2-3.2 1.8-5.5 1.8-.5 0-1.3 0-2.3-.1-1 0-1.6-.1-1.9-.1v3.4c.9 0 1.6-.1 2.2-.2l.7-.1-.1 3.6-5.5-.1-5.5.1-.3-3.6.7.1c.6.1 1.3.2 2.2.2V34.1c-.7 0-1.4.1-2.1.2l-.8.2.1-3.6zm35.8-.1l.1 3.6-.7-.1c-.6-.1-1.3-.2-2.2-.2v13.3c.9 0 1.6-.1 2.2-.2l.7-.1-.1 3.6-5.5-.1-5.5.1-.1-3.6.7.1c.6.1 1.3.2 2.2.2V34.2c-.9 0-1.6.1-2.2.2l-.7.1.1-3.6 5.5.1 5.5-.2zm23.3-.1l-.3 4.5-11.1 12.3H50c.4 0 1 0 1.7-.1s1.2-.1 1.6-.3c.4-.1.8-.3 1.3-.5s.8-.5 1.1-.8c.2-.3.5-.7.7-1.2.2-.5.3-1.1.4-1.7l3.3.3-.7 7.9c-6.7-.2-10.7-.3-12.2-.3h-1.7l-4.9.2-.1-4.3 11.6-12.5h-2.9c-.4 0-.8 0-1.3.1-.5 0-.8.1-1.1.2-.2.1-.5.2-.8.3-.3.1-.5.3-.7.5-.1.2-.3.4-.5.7-.2.3-.3.6-.4.9-.1.4-.1.8-.2 1.2l-3.3-.3.7-7.1c5.3.2 8.7.3 10.2.3h3l4.4-.3zm23.9 0l-.3 4.5-11 12.3h2.1c.4 0 1 0 1.7-.1s1.2-.1 1.6-.3c.4-.1.8-.3 1.3-.5s.8-.5 1.1-.8c.2-.3.5-.7.7-1.2.2-.5.3-1.1.4-1.7l3.3.3-.7 7.9c-6.7-.2-10.7-.3-12.2-.3h-1.7l-4.8.2-.1-4.3 11.6-12.5h-2.9c-.4 0-.8 0-1.3.1-.5 0-.8.1-1.1.2-.2.1-.5.2-.8.3-.3.1-.5.3-.7.5-.1.2-.3.4-.5.7-.2.3-.3.6-.4.9-.1.4-.1.8-.2 1.2l-3.3-.3.7-7.1c5.3.2 8.7.3 10.2.3h3l4.3-.3zm18.7.2l4.5 10.6h2.8v3.1h-1.5l.9 2.1c.1.3.2.5.3.6.1.1.2.1.4.1s.6 0 1.2-.1l-.1 3.6-6.2-.1-3.6.1-.1-3.6.7.1c.8.1 1.4.1 1.6.1l-1.3-3h-1.6c-1.1 0-2.8 0-5 .1l-1.3 3s.5 0 1.6-.1l.7-.1-.1 3.5-3.7-.1-3.8.1-.1-3.6c.6.1 1 .2 1.2.2.4 0 .7-.2.9-.7l.9-2.2h-1.6v-3.9c.9.1 2 .2 3.2.3l2.1-4.8c.8-1.9 1.2-3.9 1.2-5.9l5.8.6zm-5.5 10.4c1.5.1 2.7.2 3.6.2h.4l-2-4.8-2 4.6z"/></symbol><symbol viewBox="0 0 30 28.7" id="icon--kontact"><path d="M27.6 13.4c-3 4-3.4 3.7-.9 6 2.4 2.2 2.9 3.3 3 3.5 0 0 1 1.8-1.1 1.8l-4 .1c-.9.2-2-.6-2-.6-1.5-1-2.9-3.7-4-3.4 0 0-1.1.4-1.1 2.8 0 .5-.2.8-.2.8s-.3.3-.8.3h-1.8c-4 .3-7.4-3.4-7.4-3.4S3.4 17.2.1 9.4c-.2-.5 0-.8 0-.8s.2-.3.9-.3h4.3c.4 0 .7.3.7.3s.3.2.4.5C7 10.8 8 12.4 8 12.4c1.6 3.2 2.6 3.8 3.2 3.4 0 0 .8-.5.6-4.4-.1-1.4-.5-2-.5-2-.4-.5-1-.6-1.3-.7-.2 0 .2-.6.7-.8.8-.4 2.1-.4 3.7-.4 1.3 0 1.6.1 2.1.2 1.5.4 1 1.7 1 5 0 1.1-.2 2.5.6 3 .3.2 1.1 0 3.1-3.4 0 0 .9-1.6 1.7-3.5.1-.3.4-.5.4-.5s.3-.1.6-.1h4.5c1.3-.1 1.6.6 1.6.6.2.6-.5 2.1-2.4 4.6z"/></symbol><symbol viewBox="121.9 95.8 20.8 19.8" id="icon--krestik"><path d="M126.8 100.1c.5-.5 1.4-.5 1.9 0l9.1 9.1c.5.5.5 1.4 0 1.9l-.1.1c-.5.5-1.4.5-1.9 0l-9.1-9.1c-.5-.5-.5-1.4 0-1.9l.1-.1z"/><path d="M137.8 100.3c.5.5.5 1.4 0 1.9l-9.1 9.1c-.5.5-1.4.5-1.9 0l-.1-.1c-.5-.5-.5-1.4 0-1.9l9.1-9.1c.5-.5 1.4-.5 1.9 0l.1.1z"/></symbol><symbol viewBox="222.4 439.2 398.9 93.7" id="icon--minus"><path d="M621.3 502.6c0 18.1-15.1 30.2-30.2 30.2H252.6c-18.1 0-30.2-15.1-30.2-30.2v-33.2c0-18.1 15.1-30.2 30.2-30.2H591c18.1 0 30.2 15.1 30.2 30.2v33.2z"/></symbol><symbol viewBox="0 0 110.4 20.8" id="icon--pizza"><path fill-rule="evenodd" clip-rule="evenodd" d="M8.4 3.7v7H10c3 0 4.5-1.2 4.5-3.5 0-1.3-.4-2.2-1.1-2.7-.7-.5-1.8-.8-3.4-.8H8.4zM.1.6L8.7.4h4c2.3 0 4.1.6 5.5 1.8 1.3 1.2 2 2.9 2 5 0 2.2-.7 3.8-2 5-1.3 1.2-3.2 1.8-5.5 1.8-.5 0-1.3 0-2.3-.1-1 0-1.6-.1-1.9-.1v3.4c.9 0 1.6-.1 2.2-.2l.7-.1-.1 3.6-5.5-.1-5.5.1-.3-3.6.7.1c.6.1 1.3.2 2.2.2V3.8c-.8 0-1.5.1-2.2.2l-.7.2L.1.6zM35.9.5l.1 3.7-.7-.2c-.6-.1-1.3-.2-2.2-.2v13.3c.9 0 1.6-.1 2.2-.2l.7-.1-.1 3.6-5.5-.1-5.5.1-.1-3.6.7.1c.6.1 1.3.2 2.2.2V3.9c-.9 0-1.6.1-2.2.2l-.7.1.1-3.6 5.5.1 5.5-.2zM59.2.4l-.3 4.5-11.1 12.3H50c.4 0 1 0 1.7-.1s1.2-.1 1.6-.3c.4-.1.8-.3 1.3-.5s.8-.5 1.1-.8c.2-.3.5-.7.7-1.2.2-.5.3-1.1.4-1.7l3.3.3-.7 7.9c-6.7-.2-10.7-.3-12.2-.3h-1.7l-4.7.2-.1-4.3L52.2 3.9h-2.9c-.4 0-.8 0-1.3.1-.4 0-.8 0-1 .1-.2.1-.5.2-.8.3-.3.1-.5.3-.7.5-.2.1-.3.4-.5.6-.2.3-.3.6-.4.9-.1.4-.1.8-.2 1.2l-3.3-.3.7-7.1c5.3.2 8.7.3 10.2.3h3l4.2-.1zm23.9 0l-.3 4.5-11 12.3h2.1c.4 0 1 0 1.7-.1s1.2-.1 1.6-.3c.4-.1.8-.3 1.3-.5s.8-.5 1.1-.8c.2-.3.5-.7.7-1.2.2-.5.3-1.1.4-1.7l3.3.3-.7 7.9c-6.7-.2-10.7-.3-12.2-.3h-1.7l-4.7.2-.1-4.3L76.1 3.9h-2.9c-.4 0-.8 0-1.3.1-.5 0-.8.1-1.1.2-.2.1-.5.2-.8.3-.3.1-.5.3-.7.5-.1.2-.3.4-.5.7-.2.3-.3.6-.4.9-.1.4-.1.8-.2 1.2l-3.3-.3.7-7.1c5.3.2 8.7.3 10.2.3h3l4.3-.3zm18.7.2l4.5 10.6h2.8v3.1h-1.5l.9 2.1c.1.3.2.5.3.6.1.1.2.1.4.1s.6 0 1.2-.1l-.1 3.6-6.2-.1-3.6.1-.1-3.6.7.1c.8.1 1.4.1 1.6.1l-1.3-3h-1.6c-1.1 0-2.8 0-5 .1l-1.3 3s.5 0 1.6-.1l.7-.1-.1 3.5-3.7-.1-3.8.1.1-3.6c.6.1 1 .2 1.2.2.4 0 .7-.2.9-.7l.9-2.2h-1.6v-3.9c.9.1 2 .2 3.2.3L95 5.9c.7-2 1.1-3.9 1.1-5.9l5.7.6zM96.3 11c1.5.1 2.7.2 3.6.2h.4l-2-4.8-2 4.6z"/></symbol><symbol viewBox="216.2 319.3 401.9 401.9" id="icon--plus"><path d="M370.3 349.5v123.9H246.4c-18.1 0-30.2 15.1-30.2 30.2v33.2c0 18.1 15.1 30.2 30.2 30.2h123.9v124c0 18.1 15.1 30.2 30.2 30.2h33.2c18.1 0 30.2-15.1 30.2-30.2V567.1h123.9c18.1 0 30.2-15.1 30.2-30.2v-33.2c0-18.1-15.1-30.2-30.2-30.2H464v-124c0-18.1-15.1-30.2-30.2-30.2h-33.2c-15.2 0-30.3 12.1-30.3 30.2z"/></symbol><symbol viewBox="0 0 42.8 42.6" id="icon--procent"><path d="M28.3 8.7c-.7-.4-1.6-.2-2 .6L13.8 31.1c-.4.7-.2 1.6.6 2 .2.1.5.2.7.2.5 0 1-.3 1.3-.8l12.5-21.8c.4-.6.2-1.6-.6-2zm-7.6 6.1c0-3.4-2.8-6.2-6.2-6.2s-6.2 2.8-6.2 6.2 2.8 6.2 6.2 6.2 6.2-2.8 6.2-6.2zm-9.4 0c0-1.8 1.4-3.2 3.2-3.2s3.2 1.4 3.2 3.2-1.4 3.2-3.2 3.2-3.2-1.5-3.2-3.2zm17 6.8c-3.4 0-6.2 2.8-6.2 6.2s2.8 6.2 6.2 6.2 6.2-2.8 6.2-6.2-2.8-6.2-6.2-6.2zm0 9.5c-1.8 0-3.2-1.4-3.2-3.2s1.4-3.2 3.2-3.2 3.2 1.4 3.2 3.2-1.5 3.2-3.2 3.2z"/></symbol><symbol viewBox="445.6 132 6.2 10.2" id="icon--slider_left"><path d="M451.5 133.8c.4-.4.4-1.1 0-1.5s-1.1-.4-1.5 0l-4 4-.1.1c-.2.2-.3.5-.3.7 0 .3.1.6.3.7l.1.1 4 4c.4.4 1.1.4 1.5 0 .4-.4.4-1.1 0-1.5l-2.3-2.3-.2-.2-.1-.1c-.2-.2-.3-.5-.3-.7s.1-.5.3-.7l.1-.1.2-.2 2.3-2.3z"/></symbol><symbol viewBox="445.6 132 6.2 10.2" id="icon--slider_right"><path d="M448.2 136l.2.2.1.1c.2.2.3.5.3.7s-.1.6-.3.7l-.1.1-.2.2-2.3 2.3c-.4.4-.4 1.1 0 1.5.4.4 1.1.4 1.5 0l4-4 .1-.1c.2-.2.3-.5.3-.7 0-.3-.1-.5-.3-.7l-.1-.1-4-4c-.4-.4-1.1-.4-1.5 0s-.4 1.1 0 1.5l2.3 2.3z"/></symbol><symbol viewBox="675.5 356.9 67 66.7" id="icon--tel_znachok"><path d="M717.2 393.5c-2 0-2.3 4.1-3.8 4.1s-5-1.9-7.4-4.2l-.2-.2c-2.5-2.3-4.2-5.8-4.2-7.2s4.2-1.7 4.2-3.8-6-8.6-8.1-8.5c-2.2.2-5.8 4.2-5.3 7.7s4.7 9.7 10.2 15.2c5.5 5.3 11.9 9.6 15.5 10 3.6.5 7.7-3.1 7.8-5.2.2-2.1-6.7-7.9-8.7-7.9z"/><path d="M709 356.9c-18.5 0-33.5 15-33.5 33.4 0 18.3 15 33.4 33.5 33.4s33.5-15 33.5-33.4-15-33.4-33.5-33.4zm0 60.6c-15 0-27.3-12.2-27.3-27.1 0-14.9 12.2-27.1 27.3-27.1 15 0 27.3 12.2 27.3 27.1 0 14.9-12.3 27.1-27.3 27.1z"/></symbol><symbol viewBox="162 110.4 87.2 82.7" id="icon--znac_korzina"><path d="M249.2 144.3c0 3.1-2.3 5.4-5.4 5.4h-76.3c-3.1 0-5.4-2.3-5.4-5.4 0-3.1 2.3-5.4 5.4-5.4h76.3c3.1 0 5.4 2.3 5.4 5.4zm-80.2 8.6s.8 35.8 7.8 38.1c7 2.3 56 3.1 59.9 0 3.9-3.1 6.2-38.1 6.2-38.1H169zm10.9 33.5l-2.3-27.2h3.9l2.3 27.2h-3.9zm10.9 0l-2.3-27.2h3.9l2.3 27.2h-3.9zm19.5 0h-8.6v-27.2h8.6v27.2zm10.9 0h-3.9l2.3-27.2h3.9l-2.3 27.2zm10.1 0h-3.9l2.3-27.2h3.9l-2.3 27.2z"/><path d="M184.6 143.6c-.8.8-2.3.8-3.9-.8s-1.6-3.1-1.6-3.9l23.3-28c.8-.8 2.3-.8 3.9.8s1.6 3.1 1.6 3.9l-23.3 28z"/><path d="M232.8 139.7c.8.8.8 2.3-.8 3.9s-3.1 1.6-3.9.8l-24.9-26.5c-.8-.8-.8-2.3.8-3.9s3.1-1.6 3.9-.8l24.9 26.5z"/></symbol><symbol viewBox="-218.6 369.2 28.2 41.7" id="icon--znac_publy"><path d="M-215 410.9v-9.4h-3.6v-4.1h3.5v-2.6h-3.5v-4.2h3.5v-21.4h11.6c3.8.1 7.1 1.2 9.8 4 1.9 2.1 2.9 4.6 3.2 7.4.3 2.8-.2 5.5-1.6 8-1.9 3.3-4.9 5.1-8.5 5.8-2.2.4-4.3.3-6.5.3h-2.1v2.6h15.5v4.1h-15.6v9.4c-1.9.1-3.8.1-5.7.1zm5.8-36.9v16.6h5.1c1.6 0 3-.4 4.3-1.4 2.8-2.1 3.9-4.9 3.5-8.3s-2.3-5.7-5.6-6.6c-2.3-.8-4.8-.4-7.3-.3 0-.1 0-.1 0 0z"/></symbol></svg>