<?xml version="1.0" encoding="utf-8"?>
<!-- Generator: Adobe Illustrator 17.1.0, SVG Export Plug-In . SVG Version: 6.00 Build 0)  -->
<!DOCTYPE svg PUBLIC "-//W3C//DTD SVG 1.1//EN" "http://www.w3.org/Graphics/SVG/1.1/DTD/svg11.dtd">
<svg version="1.1" id="_x31_" xmlns="http://www.w3.org/2000/svg" xmlns:xlink="http://www.w3.org/1999/xlink" x="0px" y="0px"
	 viewBox="0 0 203.3 51.1" enable-background="new 0 0 203.3 51.1" xml:space="preserve">
<path fill-rule="evenodd" clip-rule="evenodd" fill="#2BA234" d="M25.2,0.6l0.1,3.9l-0.7-0.1c-0.6-0.1-1.4-0.2-2.3-0.2v14.4
	c0.9,0,1.7-0.1,2.3-0.2l0.7-0.1l-0.1,3.9l-6.6-0.1l-2.7,0.1c0-0.4,0-1,0.1-1.8c0.1-0.8,0.1-1.4,0.1-1.8V9.4C11.4,16,9,20.3,9,22.2
	l-2.4-0.1l-6.6,0.1L0,18.3l0.7,0.1c0.6,0.1,1.4,0.2,2.3,0.2V4.2c-0.9,0-1.7,0.1-2.3,0.2L0,4.5l0.1-3.9l6.6,0.1l2.7-0.1
	c0,0.4-0.1,1-0.2,1.8C9.1,3.2,9,3.8,9,4.2v9.2c4.8-6.6,7.2-10.9,7.2-12.8l2.4,0.1L25.2,0.6L25.2,0.6z M50.5,0.3l0.8,8.6l-3.6,0.3
	c-0.2-1.8-0.7-3.1-1.5-3.9c-0.9-0.8-2.1-1.1-3.7-1.1v14.4c0.6,0,1.1-0.1,1.8-0.2l0.7-0.1l-0.1,3.9l-5.3-0.1l-5.3,0.1L34,18.3
	l0.7,0.1c0.6,0.1,1.2,0.2,1.8,0.2V4.2c-1.6,0-2.9,0.4-3.7,1.1c-0.9,0.8-1.4,2-1.5,3.9l-3.6-0.3l0.8-8.6C33,0.5,36,0.6,37.6,0.6h3.6
	L50.5,0.3L50.5,0.3z M68,0.6l4.8,11.5h3v3.4l-1.6,0l1,2.3c0.1,0.3,0.2,0.5,0.3,0.6s0.3,0.1,0.5,0.1c0.2,0,0.7,0,1.3-0.1l-0.1,3.9
	l-6.7-0.1l-3.9,0.1l-0.1-3.9l0.7,0.1c0.9,0.1,1.5,0.1,1.8,0.1l-1.4-3.3c-0.5,0-1.1,0-1.7,0c-1.2,0-3,0-5.4,0.1l-1.4,3.2
	c0,0,0.6,0,1.7-0.1l0.7-0.1l-0.1,3.8l-4-0.1l-4.1,0.1l-0.1-3.9c0.6,0.1,1,0.2,1.3,0.2c0.4,0,0.7-0.2,0.9-0.7l1-2.3l-1.7,0v-4.3
	c1,0.1,2.1,0.2,3.4,0.3l2.2-5.2c0.9-2.1,1.3-4.2,1.3-6.3L68,0.6L68,0.6z M62.1,11.9c1.7,0.2,3,0.2,3.9,0.2h0.4l-2.2-5.2L62.1,11.9
	L62.1,11.9z M103.5,0.6l0.1,3.9l-0.7-0.1c-0.6-0.1-1.4-0.2-2.3-0.2v14.4c0.9,0,1.7-0.1,2.3-0.2l0.7-0.1l-0.1,3.9l-6.6-0.1l-4.8,0.1
	l0.1-3.8l0.7,0.1c0.8,0.1,1.3,0.1,1.6,0.1V4.2c-0.2,0-0.6,0-1.4,0c-0.8,0-1.3,0-1.6,0h-0.9c-0.5,0-1,0.7-1.4,2.2
	c-0.4,1.5-0.7,3.2-0.9,5c-0.2,1.9-0.5,3.7-0.8,5.6c-0.3,1.9-0.6,3.1-1,3.7c-0.8,1.4-2.2,2-4,2c-1,0-2-0.2-3.1-0.6l0.1-6
	c0.7,0.3,1.3,0.4,1.6,0.4c0.5,0,1-0.2,1.4-0.7c0.4-0.4,0.8-2.3,1.2-5.5c0.4-3.2,0.8-5.3,1.3-6.2h-0.4c-0.9,0-1.7,0.1-2.3,0.2
	l-0.7,0.1l0.1-3.9l9.9,0.1L103.5,0.6L103.5,0.6z M115.1,11.6v7.1l1.8,0c1.4,0,2.4-0.3,3.1-0.9c0.7-0.6,1.1-1.6,1.1-2.8
	c0-1.1-0.4-2-1.1-2.6c-0.7-0.6-1.8-0.9-3.1-0.9L115.1,11.6L115.1,11.6z M118.1,0.6l0.1,3.9l-0.7-0.1c-0.6-0.1-1.4-0.2-2.3-0.2V8
	l3.6-0.1c2.5,0,4.5,0.7,6.1,2c1.5,1.3,2.3,3.1,2.3,5.3c0,2.2-0.7,3.9-2.1,5.2c-1.4,1.3-3.3,2-5.6,2l-13.2-0.3l-0.1-3.9l0.8,0.2
	c0.7,0.1,1.5,0.2,2.3,0.2V4.2c-0.9,0-1.7,0.1-2.3,0.2L106,4.5l0.1-3.9l6,0.1L118.1,0.6L118.1,0.6z M142.5,10.7V5.4V4
	c-0.8,0-1.3,0-1.7,0c-1.4,0-2.5,0.3-3.2,0.9c-0.7,0.6-1.1,1.4-1.1,2.4c0,2.3,1.4,3.4,4.3,3.4L142.5,10.7L142.5,10.7z M151.4,0.6
	l0.1,3.9c-1-0.2-2-0.3-3.1-0.3v14.4c0.8,0,1.6-0.1,2.2-0.2l0.8-0.1l-0.1,3.9l-6-0.1l-5.4,0.1l0.2-3.8l0.7,0.1
	c0.7,0.1,1.2,0.1,1.5,0.1v-4.7l-1.3,0c-0.8,1-2.2,3.3-4.3,6.9c-0.8,1.4-2.2,2-4.3,2c-1.1,0-2.2-0.2-3.3-0.6l0.1-6
	c1.5,0.6,2.5,0.8,3,0.8c0.6,0,1.1-0.2,1.4-0.5c0.9-0.9,2.1-2.1,3.7-3.4c-2.1-0.3-3.8-0.9-5.1-2.1c-1.3-1.1-1.9-2.5-1.9-4.3
	c0-2,0.8-3.6,2.3-4.7c1.5-1.1,3.6-1.7,6.1-1.7L151.4,0.6L151.4,0.6z M179.1,0.6l0.1,3.9l-0.7-0.1c-0.6-0.1-1.4-0.2-2.3-0.2v14.4
	c0.9,0,1.7-0.1,2.3-0.2l0.7-0.1l-0.1,3.9l-6.6-0.1l-4.8,0.1l-0.1-3.9l0.7,0.1c0.9,0.1,1.4,0.1,1.7,0.1v-5.3
	c-1.5-0.1-2.7-0.1-3.6-0.1c-0.9,0-2.1,0-3.6,0.1v5.3c0.3,0,0.9,0,1.7-0.1l0.7-0.1l-0.1,3.9l-4.8-0.1l-6.6,0.1l-0.1-3.9l0.7,0.1
	c0.6,0.1,1.4,0.2,2.3,0.2V4.2c-0.9,0-1.7,0.1-2.3,0.2l-0.7,0.1l0.1-3.9l6.6,0.1l4.8-0.1l0.1,3.9l-0.7-0.1c-0.9-0.1-1.4-0.1-1.7-0.1
	v5.3c1.5,0.1,2.7,0.1,3.6,0.1c0.9,0,2.1,0,3.6-0.1V4.2c-0.3,0-0.9,0-1.7,0.1l-0.7,0.1l0.1-3.9l4.8,0.1L179.1,0.6L179.1,0.6z
	 M200.5,3.1c1.8,1.9,2.8,4.6,2.8,8.2c0,3.6-0.9,6.3-2.8,8.2c-1.8,1.9-4.5,2.8-8,2.8c-3.5,0-6.2-0.9-8-2.8c-1.8-1.9-2.8-4.6-2.8-8.2
	c0-3.6,0.9-6.3,2.8-8.2c1.8-1.9,4.5-2.8,8-2.8C196,0.3,198.6,1.2,200.5,3.1L200.5,3.1z M196.2,16.9c0.7-1.3,1.1-3.1,1.1-5.6
	c0-2.4-0.5-4.3-1.4-5.6c-0.9-1.3-2.3-1.9-4-1.9c-1.4,0-2.4,0.6-3.1,1.9c-0.7,1.3-1.1,3.1-1.1,5.6c0,2.4,0.5,4.3,1.4,5.6
	c0.9,1.3,2.3,1.9,4,1.9C194.4,18.9,195.5,18.2,196.2,16.9z"/>
<path fill-rule="evenodd" clip-rule="evenodd" fill="#E3000F" d="M8.4,34v7c0.2,0,0.5,0,0.8,0c0.4,0,0.6,0,0.8,0
	c3,0,4.5-1.2,4.5-3.5c0-1.3-0.4-2.2-1.1-2.7C12.7,34.3,11.6,34,10,34c-0.2,0-0.5,0-0.8,0C8.8,34,8.6,34,8.4,34L8.4,34z M0.1,30.9
	l8.6-0.2c0,0,0.7,0,2,0c1.3,0,1.9,0,2,0c2.3,0,4.1,0.6,5.5,1.8c1.3,1.2,2,2.9,2,5c0,2.2-0.7,3.8-2,5c-1.3,1.2-3.2,1.8-5.5,1.8
	c-0.5,0-1.3,0-2.3-0.1c-1,0-1.6-0.1-1.9-0.1v3.4c0.9,0,1.6-0.1,2.2-0.2l0.7-0.1l-0.1,3.6l-5.5-0.1l-5.5,0.1L0,47.2l0.7,0.1
	c0.6,0.1,1.3,0.2,2.2,0.2V34.1c-0.7,0-1.4,0.1-2.1,0.2L0,34.5L0.1,30.9L0.1,30.9z M35.9,30.8l0.1,3.6l-0.7-0.1
	c-0.6-0.1-1.3-0.2-2.2-0.2v13.3c0.9,0,1.6-0.1,2.2-0.2l0.7-0.1l-0.1,3.6l-5.5-0.1l-5.5,0.1l-0.1-3.6l0.7,0.1
	c0.6,0.1,1.3,0.2,2.2,0.2V34.2c-0.9,0-1.6,0.1-2.2,0.2l-0.7,0.1l0.1-3.6l5.5,0.1L35.9,30.8L35.9,30.8z M59.2,30.7l-0.3,4.5
	L47.8,47.5h0.3c0.8,0,1.4,0,1.9,0c0.4,0,1,0,1.7-0.1c0.7-0.1,1.2-0.1,1.6-0.3c0.4-0.1,0.8-0.3,1.3-0.5c0.5-0.2,0.8-0.5,1.1-0.8
	c0.2-0.3,0.5-0.7,0.7-1.2c0.2-0.5,0.3-1.1,0.4-1.7l3.3,0.3l-0.7,7.9c-6.7-0.2-10.7-0.3-12.2-0.3h-1.7L40.6,51l-0.1-4.3l11.6-12.5
	h-1.3c-0.7,0-1.2,0-1.6,0c-0.4,0-0.8,0-1.3,0.1c-0.5,0-0.8,0.1-1.1,0.2c-0.2,0.1-0.5,0.2-0.8,0.3c-0.3,0.1-0.5,0.3-0.7,0.5
	c-0.1,0.2-0.3,0.4-0.5,0.7c-0.2,0.3-0.3,0.6-0.4,0.9c-0.1,0.4-0.1,0.8-0.2,1.2l-3.3-0.3l0.7-7.1c5.3,0.2,8.7,0.3,10.2,0.3h3
	L59.2,30.7L59.2,30.7z M83.1,30.7l-0.3,4.5L71.8,47.5H72c0.8,0,1.4,0,1.9,0c0.4,0,1,0,1.7-0.1c0.7-0.1,1.2-0.1,1.6-0.3
	c0.4-0.1,0.8-0.3,1.3-0.5c0.5-0.2,0.8-0.5,1.1-0.8c0.2-0.3,0.5-0.7,0.7-1.2c0.2-0.5,0.3-1.1,0.4-1.7l3.3,0.3l-0.7,7.9
	c-6.7-0.2-10.7-0.3-12.2-0.3h-1.7L64.6,51l-0.1-4.3l11.6-12.5h-1.3c-0.7,0-1.2,0-1.6,0c-0.4,0-0.8,0-1.3,0.1c-0.5,0-0.8,0.1-1.1,0.2
	c-0.2,0.1-0.5,0.2-0.8,0.3c-0.3,0.1-0.5,0.3-0.7,0.5c-0.1,0.2-0.3,0.4-0.5,0.7c-0.2,0.3-0.3,0.6-0.4,0.9c-0.1,0.4-0.1,0.8-0.2,1.2
	l-3.3-0.3l0.7-7.1c5.3,0.2,8.7,0.3,10.2,0.3h3L83.1,30.7L83.1,30.7z M101.8,30.9l4.5,10.6h2.8v3.1l-1.5,0l0.9,2.1
	c0.1,0.3,0.2,0.5,0.3,0.6c0.1,0.1,0.2,0.1,0.4,0.1c0.2,0,0.6,0,1.2-0.1l-0.1,3.6l-6.2-0.1l-3.6,0.1l-0.1-3.6l0.7,0.1
	c0.8,0.1,1.4,0.1,1.6,0.1l-1.3-3c-0.5,0-1,0-1.6,0c-1.1,0-2.8,0-5,0.1l-1.3,3c0,0,0.5,0,1.6-0.1l0.7-0.1l-0.1,3.5l-3.7-0.1l-3.8,0.1
	l-0.1-3.6c0.6,0.1,1,0.2,1.2,0.2c0.4,0,0.7-0.2,0.9-0.7l0.9-2.2l-1.6,0v-3.9c0.9,0.1,2,0.2,3.2,0.3l2.1-4.8c0.8-1.9,1.2-3.9,1.2-5.9
	L101.8,30.9L101.8,30.9z M96.3,41.3c1.5,0.1,2.7,0.2,3.6,0.2h0.4l-2-4.8L96.3,41.3z"/>
</svg>
