<?xml version="1.0" encoding="utf-8"?>
<!-- Generator: Adobe Illustrator 17.1.0, SVG Export Plug-In . SVG Version: 6.00 Build 0)  -->
<!DOCTYPE svg PUBLIC "-//W3C//DTD SVG 1.1//EN" "http://www.w3.org/Graphics/SVG/1.1/DTD/svg11.dtd">
<svg version="1.1" id="Layer_1" xmlns="http://www.w3.org/2000/svg" xmlns:xlink="http://www.w3.org/1999/xlink" x="0px" y="0px"
	 viewBox="463.9 119.8 76.5 19.1" enable-background="new 463.9 119.8 76.5 19.1" xml:space="preserve">
<linearGradient id="SVGID_1_" gradientUnits="userSpaceOnUse" x1="1898.15" y1="1056.8158" x2="1898.15" y2="984.63" gradientTransform="matrix(0.2646 0 0 -0.2646 -1.172243e-005 405.5709)">
	<stop  offset="0" style="stop-color:#89B91A"/>
	<stop  offset="0.1291" style="stop-color:#6FB41E"/>
	<stop  offset="0.4027" style="stop-color:#2EA62A"/>
	<stop  offset="0.5816" style="stop-color:#009D32"/>
	<stop  offset="0.6986" style="stop-color:#009135"/>
	<stop  offset="0.9088" style="stop-color:#00723C"/>
	<stop  offset="1" style="stop-color:#00623F"/>
</linearGradient>
<path fill="url(#SVGID_1_)" d="M540.4,133.9c0,2.7-2.2,4.9-4.9,4.9h-66.6c-2.7,0-4.9-2.2-4.9-4.9v-9.2c0-2.7,2.2-4.9,4.9-4.9h66.6
	c2.7,0,4.9,2.2,4.9,4.9V133.9z"/>
<linearGradient id="SVGID_2_" gradientUnits="userSpaceOnUse" x1="1898.15" y1="1079.9004" x2="1898.15" y2="1062.0973" gradientTransform="matrix(0.2646 0 0 -0.2646 -1.172243e-005 405.5709)">
	<stop  offset="0" style="stop-color:#00623F"/>
	<stop  offset="9.118307e-002" style="stop-color:#00723C"/>
	<stop  offset="0.3014" style="stop-color:#009135"/>
	<stop  offset="0.4184" style="stop-color:#009D32"/>
	<stop  offset="0.5973" style="stop-color:#2EA62A"/>
	<stop  offset="0.8709" style="stop-color:#6FB41E"/>
	<stop  offset="1" style="stop-color:#89B91A"/>
</linearGradient>
<path opacity="0.58" fill="url(#SVGID_2_)" enable-background="new    " d="M535.6,119.8h-66.9c-1.5,0-2.9,0.7-3.8,1.7
	c-0.5,0.7-0.8,1.6-0.8,2.5v0.7c0-2.5,2-4.5,4.6-4.5h66.9c2.5,0,4.6,2,4.6,4.5V124c0-0.9-0.3-1.8-0.8-2.5
	C538.5,120.4,537.1,119.8,535.6,119.8z"/>
<g>
	
		<linearGradient id="SVGID_3_" gradientUnits="userSpaceOnUse" x1="1898.15" y1="1029.2026" x2="1898.15" y2="1008.13" gradientTransform="matrix(0.2646 0 0 -0.2646 -1.172243e-005 405.5709)">
		<stop  offset="0" style="stop-color:#89B91A"/>
		<stop  offset="0.1291" style="stop-color:#6FB41E"/>
		<stop  offset="0.4027" style="stop-color:#2EA62A"/>
		<stop  offset="0.5816" style="stop-color:#009D32"/>
		<stop  offset="0.6986" style="stop-color:#009135"/>
		<stop  offset="0.9088" style="stop-color:#00723C"/>
		<stop  offset="1" style="stop-color:#00623F"/>
	</linearGradient>
	<path fill="url(#SVGID_3_)" d="M535.3,138.4h-66.3c-1.6,0-2.9-0.8-3.7-2c-0.7-0.8-1.2-2-1.2-3.2v0.7c0,2.7,2.2,4.9,4.9,4.9h66.3
		c2.7,0,4.9-2.2,4.9-4.9v-0.7c0,1.2-0.4,2.3-1.2,3.2C538.2,137.6,536.9,138.4,535.3,138.4z"/>
</g>
<g>
	<g>
		<path fill="#FFFFFF" d="M481.8,127.3c0,0.4-0.3,0.7-0.7,0.7h-9.8c-0.4,0-0.7-0.3-0.7-0.7l0,0c0-0.4,0.3-0.7,0.7-0.7h9.8
			C481.5,126.6,481.8,126.9,481.8,127.3L481.8,127.3z"/>
		<path fill="#FFFFFF" d="M471.5,128.4c0,0,0.1,4.6,1,4.9c0.9,0.3,7.2,0.4,7.7,0s0.8-4.9,0.8-4.9H471.5z M472.9,132.7l-0.3-3.5h0.5
			l0.3,3.5H472.9z M474.3,132.7l-0.3-3.5h0.5l0.3,3.5H474.3z M476.8,132.7h-1.1v-3.5h1.1V132.7z M478.2,132.7h-0.5l0.3-3.5h0.5
			L478.2,132.7z M479.5,132.7H479l0.3-3.5h0.5L479.5,132.7z"/>
		<path fill="#FFFFFF" d="M473.5,127.2c-0.1,0.1-0.3,0.1-0.5-0.1l0,0c-0.2-0.2-0.2-0.4-0.2-0.5l3-3.6c0.1-0.1,0.3-0.1,0.5,0.1l0,0
			c0.2,0.2,0.2,0.4,0.2,0.5L473.5,127.2z"/>
		<path fill="#FFFFFF" d="M479.7,126.7c0.1,0.1,0.1,0.3-0.1,0.5l0,0c-0.2,0.2-0.4,0.2-0.5,0.1l-3.2-3.4c-0.1-0.1-0.1-0.3,0.1-0.5
			l0,0c0.2-0.2,0.4-0.2,0.5-0.1L479.7,126.7z"/>
	</g>
	<g>
		<path fill="#FFFFFF" d="M488.1,126.4v3h0.2l2.2-3h1.6l-2.6,3.2c1,0.2,1.5,0.8,1.8,1.7c0.3,0.7,0.5,1.5,0.8,2.1h-1.4
			c-0.2-0.5-0.4-1.1-0.6-1.6c-0.3-0.8-0.7-1.5-1.7-1.5h-0.3v3.1h-1.3v-7.1L488.1,126.4L488.1,126.4z"/>
		<path fill="#FFFFFF" d="M498.9,129.8c0,2.4-1.4,3.7-3.4,3.7c-2,0-3.3-1.5-3.3-3.6c0-2.2,1.3-3.7,3.4-3.7
			C497.7,126.3,498.9,127.8,498.9,129.8z M493.6,129.9c0,1.4,0.7,2.6,2,2.6c1.2,0,2-1.2,2-2.6c0-1.3-0.7-2.6-2-2.6
			C494.3,127.3,493.6,128.5,493.6,129.9z"/>
		<path fill="#FFFFFF" d="M500,126.5c0.4-0.1,1.1-0.2,2-0.2c1,0,1.6,0.2,2.1,0.6c0.4,0.3,0.7,0.9,0.7,1.6c0,0.7-0.2,1.2-0.6,1.6
			c-0.5,0.5-1.3,0.8-2.2,0.8c-0.2,0-0.4,0-0.6-0.1v2.7H500L500,126.5L500,126.5z M501.3,129.8c0.2,0.1,0.4,0.1,0.6,0.1
			c1,0,1.6-0.5,1.6-1.3c0-0.8-0.6-1.2-1.4-1.2c-0.3,0-0.6,0-0.7,0.1L501.3,129.8L501.3,129.8z"/>
		<path fill="#FFFFFF" d="M505.4,126.8c0.5-0.3,1.2-0.6,2.1-0.6c1.4,0,2.3,0.7,2.3,1.8c0,0.9-0.6,1.5-1.4,1.7v0
			c0.9,0.1,1.7,0.7,1.7,1.7c0,1.5-1.5,2.1-2.8,2.1c-0.7,0-1.4-0.2-2-0.5l0.3-1c0.3,0.2,1,0.4,1.6,0.4c0.9,0,1.5-0.4,1.5-1.1
			c0-0.9-0.9-1.1-1.7-1.1h-0.6v-1h0.6c0.8,0,1.5-0.4,1.5-1.1c0-0.6-0.4-0.9-1.2-0.9c-0.6,0-1.1,0.2-1.5,0.4L505.4,126.8z"/>
		<path fill="#FFFFFF" d="M512.3,126.4v2.5c0,1.1,0,2.2-0.1,3.1h0c0.4-0.8,0.8-1.6,1.3-2.4l1.9-3.2h1.3v7.1h-1.2v-2.5
			c0-1.1,0-2,0.1-2.9h0c-0.3,0.8-0.8,1.7-1.3,2.4l-1.8,3h-1.4v-7.1L512.3,126.4L512.3,126.4z"/>
		<path fill="#FFFFFF" d="M519.5,126.4v2.8h3v-2.8h1.3v7.1h-1.3v-3.1h-3v3.1h-1.3v-7.1H519.5z"/>
		<path fill="#FFFFFF" d="M526.7,131.5l-0.6,2h-1.3l2.3-7.1h1.6l2.3,7.1h-1.4l-0.6-2H526.7z M528.7,130.5l-0.6-1.7
			c-0.1-0.4-0.3-0.9-0.3-1.3h0c-0.1,0.4-0.2,0.9-0.3,1.3l-0.6,1.7H528.7z"/>
	</g>
</g>
</svg>
