<?xml version="1.0" encoding="utf-8"?>
<!-- Generator: Adobe Illustrator 17.1.0, SVG Export Plug-In . SVG Version: 6.00 Build 0)  -->
<!DOCTYPE svg PUBLIC "-//W3C//DTD SVG 1.1//EN" "http://www.w3.org/Graphics/SVG/1.1/DTD/svg11.dtd">
<svg version="1.1" id="Capa_1" xmlns="http://www.w3.org/2000/svg" xmlns:xlink="http://www.w3.org/1999/xlink" x="0px" y="0px"
	 viewBox="121.9 95.8 20.8 19.8" enable-background="new 121.9 95.8 20.8 19.8" xml:space="preserve">
<path fill="#FFFFFF" d="M139.5,115.6h-14.4c-1.8,0-3.2-1.4-3.2-3.2V98.9c0-1.8,1.4-3.2,3.2-3.2h14.4c1.8,0,3.2,1.4,3.2,3.2v13.4
	C142.6,114.1,141.2,115.6,139.5,115.6z M125.1,96.8c-1.2,0-2.1,1-2.1,2.1v13.4c0,1.2,1,2.1,2.1,2.1h14.4c1.2,0,2.1-1,2.1-2.1V98.9
	c0-1.2-1-2.1-2.1-2.1H125.1z"/>
<path fill="#FFFFFF" d="M126.8,100.1c0.5-0.5,1.4-0.5,1.9,0l9.1,9.1c0.5,0.5,0.5,1.4,0,1.9l-0.1,0.1c-0.5,0.5-1.4,0.5-1.9,0
	l-9.1-9.1c-0.5-0.5-0.5-1.4,0-1.9L126.8,100.1z"/>
<path fill="#FFFFFF" d="M137.8,100.3c0.5,0.5,0.5,1.4,0,1.9l-9.1,9.1c-0.5,0.5-1.4,0.5-1.9,0l-0.1-0.1c-0.5-0.5-0.5-1.4,0-1.9
	l9.1-9.1c0.5-0.5,1.4-0.5,1.9,0L137.8,100.3z"/>
</svg>
