<?xml version="1.0" encoding="utf-8"?>
<!-- Generator: Adobe Illustrator 17.1.0, SVG Export Plug-In . SVG Version: 6.00 Build 0)  -->
<!DOCTYPE svg PUBLIC "-//W3C//DTD SVG 1.1//EN" "http://www.w3.org/Graphics/SVG/1.1/DTD/svg11.dtd">
<svg version="1.1" id="Capa_1" xmlns="http://www.w3.org/2000/svg" xmlns:xlink="http://www.w3.org/1999/xlink" x="0px" y="0px"
	 viewBox="121.9 95.8 20.8 19.8" enable-background="new 121.9 95.8 20.8 19.8" xml:space="preserve">

<path fill="#FFFFFF" d="M126.8,100.1c0.5-0.5,1.4-0.5,1.9,0l9.1,9.1c0.5,0.5,0.5,1.4,0,1.9l-0.1,0.1c-0.5,0.5-1.4,0.5-1.9,0
	l-9.1-9.1c-0.5-0.5-0.5-1.4,0-1.9L126.8,100.1z"/>
<path fill="#FFFFFF" d="M137.8,100.3c0.5,0.5,0.5,1.4,0,1.9l-9.1,9.1c-0.5,0.5-1.4,0.5-1.9,0l-0.1-0.1c-0.5-0.5-0.5-1.4,0-1.9
	l9.1-9.1c0.5-0.5,1.4-0.5,1.9,0L137.8,100.3z"/>
</svg>
