<?xml version="1.0" encoding="utf-8"?>
<!-- Generator: Adobe Illustrator 17.1.0, SVG Export Plug-In . SVG Version: 6.00 Build 0)  -->
<!DOCTYPE svg PUBLIC "-//W3C//DTD SVG 1.1//EN" "http://www.w3.org/Graphics/SVG/1.1/DTD/svg11.dtd">
<svg version="1.1" id="_x31_" xmlns="http://www.w3.org/2000/svg" xmlns:xlink="http://www.w3.org/1999/xlink" x="0px" y="0px"
	 viewBox="0 0 110.4 20.8" enable-background="new 0 0 110.4 20.8" xml:space="preserve">
<path fill-rule="evenodd" clip-rule="evenodd" fill="#FFFFFF" d="M8.4,3.7v7c0.2,0,0.5,0,0.8,0c0.4,0,0.6,0,0.8,0
	c3,0,4.5-1.2,4.5-3.5c0-1.3-0.4-2.2-1.1-2.7C12.7,4,11.6,3.7,10,3.7c-0.2,0-0.5,0-0.8,0C8.8,3.7,8.6,3.7,8.4,3.7L8.4,3.7z M0.1,0.6
	l8.6-0.2c0,0,0.7,0,2,0c1.3,0,1.9,0,2,0c2.3,0,4.1,0.6,5.5,1.8c1.3,1.2,2,2.9,2,5c0,2.2-0.7,3.8-2,5c-1.3,1.2-3.2,1.8-5.5,1.8
	c-0.5,0-1.3,0-2.3-0.1c-1,0-1.6-0.1-1.9-0.1v3.4c0.9,0,1.6-0.1,2.2-0.2l0.7-0.1l-0.1,3.6l-5.5-0.1l-5.5,0.1L0,16.9L0.7,17
	c0.6,0.1,1.3,0.2,2.2,0.2V3.8C2.1,3.8,1.4,3.9,0.7,4L0,4.2L0.1,0.6L0.1,0.6z M35.9,0.5L36,4.2L35.3,4c-0.6-0.1-1.3-0.2-2.2-0.2v13.3
	c0.9,0,1.6-0.1,2.2-0.2l0.7-0.1l-0.1,3.6l-5.5-0.1l-5.5,0.1l-0.1-3.6l0.7,0.1c0.6,0.1,1.3,0.2,2.2,0.2V3.9c-0.9,0-1.6,0.1-2.2,0.2
	l-0.7,0.1l0.1-3.6l5.5,0.1L35.9,0.5L35.9,0.5z M59.2,0.4l-0.3,4.5L47.8,17.2h0.3c0.8,0,1.4,0,1.9,0c0.4,0,1,0,1.7-0.1
	c0.7-0.1,1.2-0.1,1.6-0.3c0.4-0.1,0.8-0.3,1.3-0.5c0.5-0.2,0.8-0.5,1.1-0.8c0.2-0.3,0.5-0.7,0.7-1.2c0.2-0.5,0.3-1.1,0.4-1.7
	l3.3,0.3l-0.7,7.9c-6.7-0.2-10.7-0.3-12.2-0.3h-1.7l-4.7,0.2l-0.1-4.3L52.2,3.9h-1.3c-0.7,0-1.2,0-1.6,0c-0.4,0-0.8,0-1.3,0.1
	C47.6,4,47.2,4,47,4.1c-0.2,0.1-0.5,0.2-0.8,0.3c-0.3,0.1-0.5,0.3-0.7,0.5C45.3,5,45.2,5.3,45,5.5c-0.2,0.3-0.3,0.6-0.4,0.9
	c-0.1,0.4-0.1,0.8-0.2,1.2l-3.3-0.3l0.7-7.1c5.3,0.2,8.7,0.3,10.2,0.3h3L59.2,0.4L59.2,0.4z M83.1,0.4l-0.3,4.5L71.8,17.2H72
	c0.8,0,1.4,0,1.9,0c0.4,0,1,0,1.7-0.1c0.7-0.1,1.2-0.1,1.6-0.3c0.4-0.1,0.8-0.3,1.3-0.5c0.5-0.2,0.8-0.5,1.1-0.8
	c0.2-0.3,0.5-0.7,0.7-1.2c0.2-0.5,0.3-1.1,0.4-1.7l3.3,0.3l-0.7,7.9c-6.7-0.2-10.7-0.3-12.2-0.3h-1.7l-4.7,0.2l-0.1-4.3L76.1,3.9
	h-1.3c-0.7,0-1.2,0-1.6,0c-0.4,0-0.8,0-1.3,0.1c-0.5,0-0.8,0.1-1.1,0.2c-0.2,0.1-0.5,0.2-0.8,0.3c-0.3,0.1-0.5,0.3-0.7,0.5
	c-0.1,0.2-0.3,0.4-0.5,0.7c-0.2,0.3-0.3,0.6-0.4,0.9c-0.1,0.4-0.1,0.8-0.2,1.2l-3.3-0.3l0.7-7.1c5.3,0.2,8.7,0.3,10.2,0.3h3
	L83.1,0.4L83.1,0.4z M101.8,0.6l4.5,10.6h2.8v3.1l-1.5,0l0.9,2.1c0.1,0.3,0.2,0.5,0.3,0.6c0.1,0.1,0.2,0.1,0.4,0.1
	c0.2,0,0.6,0,1.2-0.1l-0.1,3.6l-6.2-0.1l-3.6,0.1l-0.1-3.6l0.7,0.1c0.8,0.1,1.4,0.1,1.6,0.1l-1.3-3c-0.5,0-1,0-1.6,0
	c-1.1,0-2.8,0-5,0.1l-1.3,3c0,0,0.5,0,1.6-0.1l0.7-0.1l-0.1,3.5l-3.7-0.1l-3.8,0.1L88.3,17c0.6,0.1,1,0.2,1.2,0.2
	c0.4,0,0.7-0.2,0.9-0.7l0.9-2.2l-1.6,0v-3.9c0.9,0.1,2,0.2,3.2,0.3l2.1-4.8C95.7,3.9,96.1,2,96.1,0L101.8,0.6L101.8,0.6z M96.3,11
	c1.5,0.1,2.7,0.2,3.6,0.2h0.4l-2-4.8L96.3,11z"/>
</svg>
