<?xml version="1.0" encoding="utf-8"?>
<!-- Generator: Adobe Illustrator 17.1.0, SVG Export Plug-In . SVG Version: 6.00 Build 0)  -->
<!DOCTYPE svg PUBLIC "-//W3C//DTD SVG 1.1//EN" "http://www.w3.org/Graphics/SVG/1.1/DTD/svg11.dtd">
<svg version="1.1" id="Capa_1" xmlns="http://www.w3.org/2000/svg" xmlns:xlink="http://www.w3.org/1999/xlink" x="0px" y="0px"
	 viewBox="216.2 319.3 401.9 401.9" enable-background="new 216.2 319.3 401.9 401.9" xml:space="preserve">
<path fill="#FFFFFF" d="M370.3,349.5v123.9H246.4c-18.1,0-30.2,15.1-30.2,30.2v33.2c0,18.1,15.1,30.2,30.2,30.2h123.9V691
	c0,18.1,15.1,30.2,30.2,30.2h33.2c18.1,0,30.2-15.1,30.2-30.2V567.1h123.9c18.1,0,30.2-15.1,30.2-30.2v-33.2
	c0-18.1-15.1-30.2-30.2-30.2H464V349.5c0-18.1-15.1-30.2-30.2-30.2h-33.2C385.4,319.3,370.3,331.4,370.3,349.5z"/>
</svg>
