<?xml version="1.0" encoding="utf-8"?>
<!-- Generator: Adobe Illustrator 17.1.0, SVG Export Plug-In . SVG Version: 6.00 Build 0)  -->
<!DOCTYPE svg PUBLIC "-//W3C//DTD SVG 1.1//EN" "http://www.w3.org/Graphics/SVG/1.1/DTD/svg11.dtd">
<svg version="1.1" id="Layer_1" xmlns="http://www.w3.org/2000/svg" xmlns:xlink="http://www.w3.org/1999/xlink" x="0px" y="0px"
	 viewBox="445.6 132 6.2 10.2" enable-background="new 445.6 132 6.2 10.2" xml:space="preserve">
<path fill="#FFFFFF" d="M448.2,136L448.2,136l0.2,0.2c0,0,0.1,0.1,0.1,0.1c0.2,0.2,0.3,0.5,0.3,0.7s-0.1,0.6-0.3,0.7
	c0,0-0.1,0.1-0.1,0.1l-0.2,0.2l0,0l-2.3,2.3c-0.4,0.4-0.4,1.1,0,1.5c0.4,0.4,1.1,0.4,1.5,0l4-4c0,0,0.1-0.1,0.1-0.1
	c0.2-0.2,0.3-0.5,0.3-0.7c0-0.3-0.1-0.5-0.3-0.7c0,0-0.1-0.1-0.1-0.1l-4-4c-0.4-0.4-1.1-0.4-1.5,0s-0.4,1.1,0,1.5L448.2,136z"/>
</svg>
