<?xml version="1.0" encoding="utf-8"?>
<!-- Generator: Adobe Illustrator 17.1.0, SVG Export Plug-In . SVG Version: 6.00 Build 0)  -->
<!DOCTYPE svg PUBLIC "-//W3C//DTD SVG 1.1//EN" "http://www.w3.org/Graphics/SVG/1.1/DTD/svg11.dtd">
<svg version="1.1" id="Capa_1" xmlns="http://www.w3.org/2000/svg" xmlns:xlink="http://www.w3.org/1999/xlink" x="0px" y="0px"
	 viewBox="122.7 71.1 19.7 18.7" enable-background="new 122.7 71.1 19.7 18.7" xml:space="preserve">
<linearGradient id="SVGID_1_" gradientUnits="userSpaceOnUse" x1="375" y1="999.325" x2="375" y2="928.3252" gradientTransform="matrix(0.3535 0 0 -0.3535 0 420.9415)">
	<stop  offset="0" style="stop-color:#89B91A"/>
	<stop  offset="0.1291" style="stop-color:#6FB41E"/>
	<stop  offset="0.4027" style="stop-color:#2EA62A"/>
	<stop  offset="0.5816" style="stop-color:#009D32"/>
	<stop  offset="0.6986" style="stop-color:#009135"/>
	<stop  offset="0.9088" style="stop-color:#00723C"/>
	<stop  offset="1" style="stop-color:#00623F"/>
</linearGradient>
<path fill="url(#SVGID_1_)" d="M139.8,71.1h-0.2h-14h-0.2c-1.4,0-2.7,1.2-2.7,2.7v13.4c0,1.4,1.2,2.7,2.7,2.7h0.2h14h0.2
	c1.4,0,2.7-1.2,2.7-2.7V73.8C142.4,72.3,141.2,71.1,139.8,71.1z"/>
<path fill="#FFFFFF" d="M139.2,80.8c0,0.6-0.5,1-1,1H127c-0.6,0-1-0.5-1-1v-1.1c0-0.6,0.5-1,1-1h11.2c0.6,0,1,0.5,1,1V80.8z"/>
</svg>
