<?xml version="1.0" encoding="utf-8"?>
<!-- Generator: Adobe Illustrator 17.1.0, SVG Export Plug-In . SVG Version: 6.00 Build 0)  -->
<!DOCTYPE svg PUBLIC "-//W3C//DTD SVG 1.1//EN" "http://www.w3.org/Graphics/SVG/1.1/DTD/svg11.dtd">
<svg version="1.1" id="Capa_1" xmlns="http://www.w3.org/2000/svg" xmlns:xlink="http://www.w3.org/1999/xlink" x="0px" y="0px"
	 viewBox="122.5 96.3 19.7 18.7" enable-background="new 122.5 96.3 19.7 18.7" xml:space="preserve">
<linearGradient id="SVGID_1_" gradientUnits="userSpaceOnUse" x1="374.2" y1="928.0779" x2="374.2" y2="857.0782" gradientTransform="matrix(0.3535 0 0 -0.3535 0 420.9415)">
	<stop  offset="0" style="stop-color:#89B91A"/>
	<stop  offset="0.1291" style="stop-color:#6FB41E"/>
	<stop  offset="0.4027" style="stop-color:#2EA62A"/>
	<stop  offset="0.5816" style="stop-color:#009D32"/>
	<stop  offset="0.6986" style="stop-color:#009135"/>
	<stop  offset="0.9088" style="stop-color:#00723C"/>
	<stop  offset="1" style="stop-color:#00623F"/>
</linearGradient>
<path fill="url(#SVGID_1_)" d="M139.5,96.3h-0.2h-14h-0.2c-1.4,0-2.7,1.2-2.7,2.7v13.4c0,1.4,1.2,2.7,2.7,2.7h0.2h14h0.2
	c1.4,0,2.7-1.2,2.7-2.7V98.9C142.1,97.5,140.9,96.3,139.5,96.3z"/>
<path fill="#FFFFFF" d="M130.7,100.1v4.1h-4.1c-0.6,0-1,0.5-1,1v1.1c0,0.6,0.5,1,1,1h4.1v4.1c0,0.6,0.5,1,1,1h1.1c0.6,0,1-0.5,1-1
	v-4.1h4.1c0.6,0,1-0.5,1-1v-1.1c0-0.6-0.5-1-1-1h-4.1v-4.1c0-0.6-0.5-1-1-1h-1.1C131.2,99.1,130.7,99.5,130.7,100.1z"/>
</svg>
